<?xml version="1.0" standalone="no"?>
<!DOCTYPE svg PUBLIC "-//W3C//DTD SVG 1.1//EN" "http://www.w3.org/Graphics/SVG/1.1/DTD/svg11.dtd" >
<svg xmlns="http://www.w3.org/2000/svg" xmlns:xlink="http://www.w3.org/1999/xlink" version="1.1">
<metadata>
Created by FontForge 20190801 at Wed Feb 16 14:09:36 2022
 By www-data
Copyright (c) 1999-2022 Typodermic Fonts Inc. All rights reserved.
</metadata>
<defs>
<font id="ethnocentricrg" horiz-adv-x="1135" >
  <font-face 
    font-family="ethnocentricrg"
    font-weight="400"
    font-stretch="normal"
    units-per-em="1000"
    panose-1="2 0 6 0 0 0 0 0 0 0"
    ascent="745"
    descent="-255"
    x-height="669"
    cap-height="669"
    bbox="-165 -255 1897 945"
    underline-thickness="20"
    underline-position="-143"
    unicode-range="U+0017-2265"
  />
<missing-glyph horiz-adv-x="725" 
d="M604 -155h-483q-92 0 -92 79v841q0 80 92 80h483q92 0 92 -80v-841q0 -79 -92 -79zM332 270q1 0 47.5 -11t87.5 -11q83 0 135.5 58t52.5 145q0 70 -58.5 130t-183.5 95l-82 23l-194 -157l244 -69q43 -12 43 -36q0 -37 -31 -37q-24 0 -71 14.5t-73 14.5q-82 0 -104 -86
l-11 -42l186 -54l3 13q1 10 9 10zM210 -3q46 0 77.5 32t31.5 79q0 49 -40 84.5t-99 35.5q-44 0 -76.5 -30t-32.5 -83q0 -49 41 -83.5t98 -34.5z" />
    <glyph glyph-name=".notdef" horiz-adv-x="725" 
d="M604 -155h-483q-92 0 -92 79v841q0 80 92 80h483q92 0 92 -80v-841q0 -79 -92 -79zM332 270q1 0 47.5 -11t87.5 -11q83 0 135.5 58t52.5 145q0 70 -58.5 130t-183.5 95l-82 23l-194 -157l244 -69q43 -12 43 -36q0 -37 -31 -37q-24 0 -71 14.5t-73 14.5q-82 0 -104 -86
l-11 -42l186 -54l3 13q1 10 9 10zM210 -3q46 0 77.5 32t31.5 79q0 49 -40 84.5t-99 35.5q-44 0 -76.5 -30t-32.5 -83q0 -49 41 -83.5t98 -34.5z" />
    <glyph glyph-name=".null" horiz-adv-x="0" 
 />
    <glyph glyph-name="nonmarkingreturn" horiz-adv-x="333" 
 />
    <glyph glyph-name="uni0017" horiz-adv-x="383" 
 />
    <glyph glyph-name="space" unicode=" " horiz-adv-x="383" 
 />
    <glyph glyph-name="exclam" unicode="!" horiz-adv-x="325" 
d="M59 669h207v-223l-23 -197h-162l-22 197v223zM52 85q0 45 32 71.5t81 26.5q48 0 80 -26.5t32 -71.5q0 -44 -32 -70t-80 -26q-49 0 -81 26t-32 70z" />
    <glyph glyph-name="quotedbl" unicode="&#x22;" horiz-adv-x="446" 
d="M17 669h185l-61 -268h-63zM244 669h185l-61 -268h-63z" />
    <glyph glyph-name="numbersign" unicode="#" horiz-adv-x="669" 
d="M545 531h106l-44 -144h-105l-27 -85h106l-44 -143h-105l-49 -159h-114l49 159h-78l-48 -159h-113l48 159h-98l45 143h97l26 85h-97l45 144h96l43 138h113l-42 -138h77l42 138h114zM362 302l26 85h-78l-25 -85h77z" />
    <glyph glyph-name="dollar" unicode="$" horiz-adv-x="677" 
d="M384 669v-89h241l-95 -123h-146v-65h76q86 0 131.5 -33t45.5 -97q0 -154 -203 -154h-50v-108h-82v108h-267l95 121h172v68h-73q-88 0 -132.5 36.5t-44.5 99.5q0 147 203 147h47v89h82zM446 297h-62v-68h62q50 0 50 34t-50 34zM243 392h59v65h-59q-50 0 -50 -32
q0 -18 12 -25.5t38 -7.5z" />
    <glyph glyph-name="percent" unicode="%" horiz-adv-x="1007" 
d="M256 692q108 0 160.5 -42t52.5 -130q0 -89 -52.5 -131t-160.5 -42t-161 42t-53 131q0 88 53 130t161 42zM256 434q63 0 87 17t24 69t-23.5 68.5t-87.5 16.5t-88 -16.5t-24 -68.5t24 -69t88 -17zM727 706h84l-533 -744h-91zM752 330q108 0 160.5 -42t52.5 -130
q0 -89 -52.5 -131t-160.5 -42t-161 42t-53 131q0 88 53 130t161 42zM752 72q63 0 87 17t24 69t-23.5 68.5t-87.5 16.5t-88 -16.5t-24 -68.5t24 -69t88 -17z" />
    <glyph glyph-name="ampersand" unicode="&#x26;" horiz-adv-x="873" 
d="M864 172l-132 -172h-419q-148 0 -209.5 51.5t-61.5 143.5q0 58 29.5 97t75.5 52q-39 14 -65.5 49.5t-26.5 90.5q0 90 70 137.5t193 47.5h280l-133 -174h-156q-57 0 -57 -43q0 -45 57 -45h543l-107 -143h-110v-92h229zM248 219q0 -47 64 -47h156v92h-156q-64 0 -64 -45z
" />
    <glyph glyph-name="quotesingle" unicode="'" horiz-adv-x="219" 
d="M17 669h185l-61 -268h-63z" />
    <glyph glyph-name="parenleft" unicode="(" horiz-adv-x="351" 
d="M195 793h114q-120 -270 -120 -460q0 -207 120 -462h-112q-110 243 -110 463q0 212 108 459z" />
    <glyph glyph-name="parenright" unicode=")" horiz-adv-x="351" 
d="M43 793h113q108 -247 108 -459q0 -220 -110 -463h-112q120 261 120 462q0 189 -119 460z" />
    <glyph glyph-name="asterisk" unicode="*" horiz-adv-x="464" 
d="M42 500l27 80l120 -39v128h86v-128l122 40l25 -81l-120 -40l75 -103l-69 -49l-76 102l-75 -103l-68 51l74 102z" />
    <glyph glyph-name="plus" unicode="+" horiz-adv-x="629" 
d="M588 396v-112h-218v-218h-112v218h-216v112h216v216h112v-216h218z" />
    <glyph glyph-name="comma" unicode="," horiz-adv-x="291" 
d="M48 172h213l-98 -268h-115v268z" />
    <glyph glyph-name="hyphen" unicode="-" horiz-adv-x="464" 
d="M116 403h334l-101 -129h-334z" />
    <glyph glyph-name="period" unicode="." horiz-adv-x="309" 
d="M42 85q0 45 32 71.5t80 26.5q49 0 81 -26.5t32 -71.5q0 -44 -32 -70t-81 -26q-48 0 -80 26t-32 70z" />
    <glyph glyph-name="slash" unicode="/" horiz-adv-x="472" 
d="M350 706h122l-343 -744h-129z" />
    <glyph glyph-name="zero" unicode="0" horiz-adv-x="938" 
d="M469 680q215 0 321 -84t106 -261q0 -178 -106 -262t-321 -84t-321 84t-106 262q0 177 106 261t321 84zM469 163q128 0 175.5 33.5t47.5 138.5q0 104 -47.5 137.5t-175.5 33.5t-175.5 -33.5t-47.5 -137.5q0 -105 47.5 -138.5t175.5 -33.5z" />
    <glyph glyph-name="one" unicode="1" horiz-adv-x="446" 
d="M12 495l125 174h245v-669h-207v495h-163z" />
    <glyph glyph-name="two" unicode="2" horiz-adv-x="935" 
d="M76 495l133 174h392q147 0 217 -54.5t70 -153.5q0 -89 -63 -140.5t-188 -51.5h-318q-71 0 -71 -48v-49h645l-133 -172h-712v219q0 183 251 183h318q71 0 71 47q0 25 -17 35.5t-54 10.5h-541z" />
    <glyph glyph-name="three" unicode="3" horiz-adv-x="911" 
d="M9 0l132 172h458q64 0 64 47q0 45 -64 45h-401l107 143h297q58 0 58 45q0 43 -58 43h-560l133 174h418q123 0 193 -47.5t70 -137.5q0 -55 -26 -90.5t-65 -49.5q46 -13 75.5 -52.5t29.5 -96.5q0 -91 -62 -143t-210 -52h-589z" />
    <glyph glyph-name="four" unicode="4" horiz-adv-x="960" 
d="M565 80h-436q-45 0 -72.5 26.5t-27.5 63.5q0 46 43 82l483 392q44 36 94 36q49 0 81.5 -31t32.5 -94v-311h191l-121 -164h-70v-80h-198v80zM565 244v100q0 56 4 87q-24 -23 -73 -64l-74 -59q-61 -49 -90 -68q37 4 114 4h119z" />
    <glyph glyph-name="five" unicode="5" horiz-adv-x="899" 
d="M77 669h757l-134 -174h-418v-93h325q250 0 250 -183q0 -219 -286 -219h-529l133 172h412q71 0 71 49q0 48 -71 48h-510v400z" />
    <glyph glyph-name="six" unicode="6" horiz-adv-x="971" 
d="M435 495q-61 0 -108.5 -25t-70.5 -68h423q116 0 183 -48t67 -137q0 -228 -418 -228q-234 0 -351.5 85.5t-117.5 266.5q0 146 113.5 237t289.5 91h431l-133 -174h-308zM663 269h-407q18 -63 79.5 -84.5t187.5 -21.5q122 0 166.5 14.5t44.5 45.5q0 46 -71 46z" />
    <glyph glyph-name="seven" unicode="7" horiz-adv-x="845" 
d="M803 503l-429 -503h-261l328 369q90 102 123 131q-63 -5 -189 -5h-363l132 174h578q55 0 84.5 -25.5t29.5 -63.5t-33 -77z" />
    <glyph glyph-name="eight" unicode="8" horiz-adv-x="953" 
d="M640 0h-327q-148 0 -209.5 51.5t-61.5 143.5q0 58 29.5 97t75.5 52q-39 14 -65.5 49.5t-26.5 90.5q0 90 70 137.5t193 47.5h317q123 0 193 -47.5t70 -137.5q0 -55 -26.5 -90.5t-65.5 -49.5q46 -13 75.5 -52t29.5 -97q0 -92 -61.5 -143.5t-209.5 -51.5zM641 264h-329
q-64 0 -64 -45q0 -47 64 -47h329q64 0 64 47q0 45 -64 45zM644 495h-335q-57 0 -57 -43q0 -45 57 -45h335q57 0 57 45q0 43 -57 43z" />
    <glyph glyph-name="nine" unicode="9" horiz-adv-x="971" 
d="M238 172h298q64 0 109.5 30.5t69.5 79.5q-92 -15 -423 -15q-116 0 -183 48t-67 137q0 228 418 228q469 0 469 -331q0 -160 -113 -254.5t-290 -94.5h-422zM308 400q321 0 407 10q-15 59 -76 77.5t-191 18.5q-123 0 -167 -14.5t-44 -45.5q0 -46 71 -46z" />
    <glyph glyph-name="colon" unicode=":" horiz-adv-x="368" 
d="M68 85q0 45 32 71.5t81 26.5q48 0 80 -26.5t32 -71.5q0 -44 -32 -70t-80 -26q-49 0 -81 26t-32 70zM68 409q0 45 32 71t81 26q48 0 80 -26.5t32 -70.5q0 -45 -32 -71t-80 -26q-49 0 -81 26t-32 71z" />
    <glyph glyph-name="semicolon" unicode=";" horiz-adv-x="309" 
d="M58 172h213l-99 -268h-114v268zM46 409q0 44 32.5 70.5t80.5 26.5t80.5 -26.5t32.5 -70.5q0 -45 -32.5 -71t-80.5 -26t-80.5 26t-32.5 71z" />
    <glyph glyph-name="less" unicode="&#x3c;" horiz-adv-x="611" 
d="M570 176v-122l-492 230q-36 16 -36 53t36 54l492 230v-122l-349 -162z" />
    <glyph glyph-name="equal" unicode="=" horiz-adv-x="629" 
d="M588 263v-112h-546v112h546zM588 528v-112h-546v112h546z" />
    <glyph glyph-name="greater" unicode="&#x3e;" horiz-adv-x="611" 
d="M42 54v122l349 161l-349 162v122l492 -230q36 -18 36 -54q0 -37 -36 -53z" />
    <glyph glyph-name="question" unicode="?" horiz-adv-x="743" 
d="M12 495l134 174h284q147 0 216.5 -54.5t69.5 -153.5q0 -90 -62.5 -141t-187.5 -51h-101q-20 0 -20 -16v-4h-171v21q0 65 37 98.5t120 33.5h115q71 0 71 47q0 25 -17 35.5t-54 10.5h-434zM155 85q0 45 32 71.5t81 26.5q48 0 80 -26.5t32 -71.5q0 -44 -32 -70t-80 -26
q-49 0 -81 26t-32 70z" />
    <glyph glyph-name="at" unicode="@" horiz-adv-x="912" 
d="M850 669v-489h-427q-71 0 -115.5 44t-44.5 109t43.5 108.5t116.5 43.5h220v-211h73v284h-269q-118 0 -195 -61.5t-77 -159.5q0 -99 77 -162.5t195 -63.5h300l86 -111h-386q-178 0 -291.5 90t-113.5 237t116 244.5t289 97.5h403zM460 274h67v125h-67q-32 0 -52.5 -17.5
t-20.5 -44.5q0 -28 20.5 -45.5t52.5 -17.5z" />
    <glyph glyph-name="A" unicode="A" 
d="M1124 0h-778l125 172h168q87 0 119 -2q-16 21 -68 97l-120 177l-314 -444h-245l429 605q54 75 134 75t132 -75z" />
    <glyph glyph-name="B" unicode="B" horiz-adv-x="964" 
d="M818 344q46 -13 75.5 -52.5t29.5 -96.5q0 -91 -62 -143t-210 -52h-588v407h592q58 0 58 45q0 43 -58 43h-592l140 174h443q123 0 193 -47.5t70 -137.5q0 -55 -26 -90.5t-65 -49.5zM652 264h-381v-92h381q64 0 64 47q0 45 -64 45z" />
    <glyph glyph-name="C" unicode="C" horiz-adv-x="923" 
d="M445 172h469l-133 -172h-336q-174 0 -288.5 97.5t-114.5 243.5t113.5 237t289.5 91h469l-133 -174h-336q-85 0 -140.5 -45.5t-55.5 -117.5q0 -71 55.5 -115.5t140.5 -44.5z" />
    <glyph glyph-name="D" unicode="D" horiz-adv-x="956" 
d="M914 341q0 -146 -114.5 -243.5t-288.5 -97.5h-448v417h208v-245h240q87 0 142.5 44.5t55.5 115.5q0 70 -57 116.5t-141 46.5h-448l132 174h316q176 0 289.5 -92t113.5 -236z" />
    <glyph glyph-name="E" unicode="E" horiz-adv-x="848" 
d="M271 172h569l-133 -172h-644v669h775l-134 -174h-433v-80h530l-119 -152h-411v-91z" />
    <glyph glyph-name="F" unicode="F" horiz-adv-x="820" 
d="M63 669h750l-134 -174h-408v-87h504l-126 -163h-378v-245h-208v669z" />
    <glyph glyph-name="G" unicode="G" horiz-adv-x="960" 
d="M352 269l124 149h428v-418h-459q-174 0 -288.5 97.5t-114.5 243.5t113.5 237t289.5 91h479l-134 -174h-345q-84 0 -140.5 -46t-56.5 -117q0 -72 55 -116t142 -44h253v97h-346z" />
    <glyph glyph-name="H" unicode="H" horiz-adv-x="939" 
d="M875 669v-669h-206v258h-398v-258h-208v669h208v-237h398v237h206z" />
    <glyph glyph-name="I" unicode="I" horiz-adv-x="339" 
d="M273 669v-669h-207v669h207z" />
    <glyph glyph-name="J" unicode="J" horiz-adv-x="732" 
d="M146 172h115q117 0 163.5 29.5t46.5 102.5v365h208v-365q0 -304 -418 -304h-250z" />
    <glyph glyph-name="K" unicode="K" horiz-adv-x="912" 
d="M630 221l277 -221h-313l-202 176q-92 80 -124 112q3 -93 3 -96v-192h-208v669h208v-155q0 -47 -4 -117q71 65 123 109l193 163h300l-256 -192q-124 -93 -173 -123q79 -54 176 -133z" />
    <glyph glyph-name="L" unicode="L" horiz-adv-x="794" 
d="M270 172h518l-134 -172h-591v669h207v-497z" />
    <glyph glyph-name="M" unicode="M" horiz-adv-x="1259" 
d="M418 609l107 -189q70 -121 108 -200q31 67 107 199l107 190q40 71 114 71q41 0 72 -23.5t44 -68.5l169 -588h-206l-63 233q-32 117 -46 184q-37 -79 -93 -185l-90 -168q-24 -46 -50.5 -60.5t-68.5 -14.5t-68.5 14.5t-50.5 60.5l-90 169q-66 123 -94 184q-10 -52 -45 -184
l-63 -233h-203l173 588q13 45 44.5 68.5t72.5 23.5q74 0 113 -71z" />
    <glyph glyph-name="N" unicode="N" horiz-adv-x="914" 
d="M741 -11q-45 0 -83 36l-410 368v-393h-188v555q0 63 32.5 94t80.5 31q43 0 83 -36l410 -368v393h189v-554q0 -63 -32.5 -94.5t-81.5 -31.5z" />
    <glyph glyph-name="O" unicode="O" horiz-adv-x="1062" 
d="M531 680q246 0 367.5 -84t121.5 -261q0 -178 -121.5 -262t-367.5 -84q-247 0 -368 84t-121 262t121 261.5t368 83.5zM531 163q162 0 222.5 33.5t60.5 138.5q0 104 -60 137.5t-223 33.5t-223 -33.5t-60 -137.5q0 -105 60.5 -138.5t222.5 -33.5z" />
    <glyph glyph-name="P" unicode="P" horiz-adv-x="988" 
d="M946 418q0 -112 -87.5 -179.5t-241.5 -67.5h-350v-171h-206v342h576q47 0 74 21t27 56t-26.5 55.5t-74.5 20.5h-576l137 174h420q153 0 240.5 -69t87.5 -182z" />
    <glyph glyph-name="Q" unicode="Q" horiz-adv-x="1062" 
d="M683 287l349 -287h-586q-177 0 -290.5 88t-113.5 247q0 178 121 261.5t368 83.5q246 0 367.5 -84t121.5 -261q0 -65 -29 -112h-222q45 34 45 112q0 104 -60 137.5t-223 33.5t-223 -33.5t-60 -137.5q0 -89 50 -126t148 -37h43q45 0 81 -3q-33 21 -72 52l-85 66h270z" />
    <glyph glyph-name="R" unicode="R" horiz-adv-x="1023" 
d="M889 130l123 -130h-277l-149 177h-318v-177h-207v342h582q49 0 81.5 20.5t32.5 54.5q0 78 -114 78h-582l135 174h430q49 0 94.5 -6.5t92 -23t80.5 -42.5t55.5 -69t21.5 -98q0 -79 -47 -137.5t-128 -74.5q28 -21 94 -88z" />
    <glyph glyph-name="S" unicode="S" horiz-adv-x="963" 
d="M319 402h364q251 0 251 -183q0 -219 -287 -219h-623l133 172h506q37 0 54 11.5t17 37.5q0 48 -71 48h-364q-125 0 -188 51.5t-63 140.5q0 99 70 153.5t217 54.5h581l-133 -174h-464q-37 0 -54 -10.5t-17 -35.5q0 -47 71 -47z" />
    <glyph glyph-name="T" unicode="T" horiz-adv-x="894" 
d="M134 669h760l-134 -174h-239v-495h-207v495h-314z" />
    <glyph glyph-name="U" unicode="U" horiz-adv-x="986" 
d="M932 669v-377q0 -303 -417 -303q-239 0 -350 75t-111 228v377h206v-377q0 -52 19.5 -78.5t74 -39.5t161.5 -13q117 0 163 29.5t46 101.5v377h208z" />
    <glyph glyph-name="V" unicode="V" 
d="M11 669h254l301 -444l314 444h244l-428 -605q-56 -75 -134 -75q-80 0 -132 75z" />
    <glyph glyph-name="W" unicode="W" horiz-adv-x="1260" 
d="M841 60l-107 189q-78 139 -108 201q-23 -53 -106 -200l-107 -190q-40 -71 -114 -71q-41 0 -72 23.5t-44 68.5l-170 588h207l63 -233q32 -115 45 -184q29 63 94 185l90 168q24 46 50.5 60.5t67.5 14.5q42 0 69 -14.5t51 -60.5l89 -169q58 -106 94 -184q12 59 46 184
l63 233h202l-173 -588q-13 -45 -44 -68.5t-72 -23.5q-74 0 -114 71z" />
    <glyph glyph-name="X" unicode="X" horiz-adv-x="1040" 
d="M745 669h268l-211 -193q-117 -106 -149 -130q24 -16 162 -145l214 -201h-292l-228 221l-235 -221h-257l218 201q114 105 156 137q-31 22 -156 139l-205 192h287l213 -208z" />
    <glyph glyph-name="Y" unicode="Y" horiz-adv-x="1028" 
d="M761 669h260l-397 -448v-221h-208v222l-408 447h266l160 -186q87 -100 91 -105q18 26 84 106z" />
    <glyph glyph-name="Z" unicode="Z" horiz-adv-x="899" 
d="M891 172l-125 -172h-634q-41 0 -68.5 22.5t-27.5 61.5q0 48 45 83l244 192q92 74 184 140q-48 -4 -230 -4h-268l132 174h617q41 0 68.5 -22.5t27.5 -61.5q0 -48 -45 -82l-247 -196q-132 -104 -182 -139q66 4 266 4h243z" />
    <glyph glyph-name="bracketleft" unicode="[" horiz-adv-x="318" 
d="M271 793v-121h-71v-681h71v-120h-192v922h192z" />
    <glyph glyph-name="backslash" unicode="\" horiz-adv-x="472" 
d="M0 706h121l351 -744h-129z" />
    <glyph glyph-name="bracketright" unicode="]" horiz-adv-x="319" 
d="M238 793v-922h-191v120h71v681h-71v121h191z" />
    <glyph glyph-name="asciicircum" unicode="^" horiz-adv-x="573" 
d="M367 669l160 -373h-135l-104 259l-104 -259h-140l160 373h163z" />
    <glyph glyph-name="underscore" unicode="_" horiz-adv-x="674" 
d="M679 -42v-90h-679v90h679z" />
    <glyph glyph-name="grave" unicode="`" horiz-adv-x="393" 
d="M317 798v-83l-298 39v113z" />
    <glyph glyph-name="a" unicode="a" 
d="M1124 0h-778l125 172h168q87 0 119 -2q-16 21 -68 97l-120 177l-314 -444h-245l429 605q54 75 134 75t132 -75z" />
    <glyph glyph-name="b" unicode="b" horiz-adv-x="964" 
d="M818 344q46 -13 75.5 -52.5t29.5 -96.5q0 -91 -62 -143t-210 -52h-588v407h592q58 0 58 45q0 43 -58 43h-592l140 174h443q123 0 193 -47.5t70 -137.5q0 -55 -26 -90.5t-65 -49.5zM652 264h-381v-92h381q64 0 64 47q0 45 -64 45z" />
    <glyph glyph-name="c" unicode="c" horiz-adv-x="923" 
d="M445 172h469l-133 -172h-336q-174 0 -288.5 97.5t-114.5 243.5t113.5 237t289.5 91h469l-133 -174h-336q-85 0 -140.5 -45.5t-55.5 -117.5q0 -71 55.5 -115.5t140.5 -44.5z" />
    <glyph glyph-name="d" unicode="d" horiz-adv-x="956" 
d="M914 341q0 -146 -114.5 -243.5t-288.5 -97.5h-448v417h208v-245h240q87 0 142.5 44.5t55.5 115.5q0 70 -57 116.5t-141 46.5h-448l132 174h316q176 0 289.5 -92t113.5 -236z" />
    <glyph glyph-name="e" unicode="e" horiz-adv-x="848" 
d="M271 172h569l-133 -172h-644v669h775l-134 -174h-433v-80h530l-119 -152h-411v-91z" />
    <glyph glyph-name="f" unicode="f" horiz-adv-x="820" 
d="M63 669h750l-134 -174h-408v-87h504l-126 -163h-378v-245h-208v669z" />
    <glyph glyph-name="g" unicode="g" horiz-adv-x="960" 
d="M352 269l124 149h428v-418h-459q-174 0 -288.5 97.5t-114.5 243.5t113.5 237t289.5 91h479l-134 -174h-345q-84 0 -140.5 -46t-56.5 -117q0 -72 55 -116t142 -44h253v97h-346z" />
    <glyph glyph-name="h" unicode="h" horiz-adv-x="939" 
d="M875 669v-669h-206v258h-398v-258h-208v669h208v-237h398v237h206z" />
    <glyph glyph-name="i" unicode="i" horiz-adv-x="339" 
d="M273 669v-669h-207v669h207z" />
    <glyph glyph-name="j" unicode="j" horiz-adv-x="732" 
d="M146 172h115q117 0 163.5 29.5t46.5 102.5v365h208v-365q0 -304 -418 -304h-250z" />
    <glyph glyph-name="k" unicode="k" horiz-adv-x="912" 
d="M630 221l277 -221h-313l-202 176q-92 80 -124 112q3 -93 3 -96v-192h-208v669h208v-155q0 -47 -4 -117q71 65 123 109l193 163h300l-256 -192q-124 -93 -173 -123q79 -54 176 -133z" />
    <glyph glyph-name="l" unicode="l" horiz-adv-x="794" 
d="M270 172h518l-134 -172h-591v669h207v-497z" />
    <glyph glyph-name="m" unicode="m" horiz-adv-x="1259" 
d="M418 609l107 -189q70 -121 108 -200q31 67 107 199l107 190q40 71 114 71q41 0 72 -23.5t44 -68.5l169 -588h-206l-63 233q-32 117 -46 184q-37 -79 -93 -185l-90 -168q-24 -46 -50.5 -60.5t-68.5 -14.5t-68.5 14.5t-50.5 60.5l-90 169q-66 123 -94 184q-10 -52 -45 -184
l-63 -233h-203l173 588q13 45 44.5 68.5t72.5 23.5q74 0 113 -71z" />
    <glyph glyph-name="n" unicode="n" horiz-adv-x="914" 
d="M741 -11q-45 0 -83 36l-410 368v-393h-188v555q0 63 32.5 94t80.5 31q43 0 83 -36l410 -368v393h189v-554q0 -63 -32.5 -94.5t-81.5 -31.5z" />
    <glyph glyph-name="o" unicode="o" horiz-adv-x="1062" 
d="M531 680q246 0 367.5 -84t121.5 -261q0 -178 -121.5 -262t-367.5 -84q-247 0 -368 84t-121 262t121 261.5t368 83.5zM531 163q162 0 222.5 33.5t60.5 138.5q0 104 -60 137.5t-223 33.5t-223 -33.5t-60 -137.5q0 -105 60.5 -138.5t222.5 -33.5z" />
    <glyph glyph-name="p" unicode="p" horiz-adv-x="988" 
d="M946 418q0 -112 -87.5 -179.5t-241.5 -67.5h-350v-171h-206v342h576q47 0 74 21t27 56t-26.5 55.5t-74.5 20.5h-576l137 174h420q153 0 240.5 -69t87.5 -182z" />
    <glyph glyph-name="q" unicode="q" horiz-adv-x="1062" 
d="M683 287l349 -287h-586q-177 0 -290.5 88t-113.5 247q0 178 121 261.5t368 83.5q246 0 367.5 -84t121.5 -261q0 -65 -29 -112h-222q45 34 45 112q0 104 -60 137.5t-223 33.5t-223 -33.5t-60 -137.5q0 -89 50 -126t148 -37h43q45 0 81 -3q-33 21 -72 52l-85 66h270z" />
    <glyph glyph-name="r" unicode="r" horiz-adv-x="1023" 
d="M889 130l123 -130h-277l-149 177h-318v-177h-207v342h582q49 0 81.5 20.5t32.5 54.5q0 78 -114 78h-582l135 174h430q49 0 94.5 -6.5t92 -23t80.5 -42.5t55.5 -69t21.5 -98q0 -79 -47 -137.5t-128 -74.5q28 -21 94 -88z" />
    <glyph glyph-name="s" unicode="s" horiz-adv-x="963" 
d="M319 402h364q251 0 251 -183q0 -219 -287 -219h-623l133 172h506q37 0 54 11.5t17 37.5q0 48 -71 48h-364q-125 0 -188 51.5t-63 140.5q0 99 70 153.5t217 54.5h581l-133 -174h-464q-37 0 -54 -10.5t-17 -35.5q0 -47 71 -47z" />
    <glyph glyph-name="t" unicode="t" horiz-adv-x="894" 
d="M134 669h760l-134 -174h-239v-495h-207v495h-314z" />
    <glyph glyph-name="u" unicode="u" horiz-adv-x="986" 
d="M932 669v-377q0 -303 -417 -303q-239 0 -350 75t-111 228v377h206v-377q0 -52 19.5 -78.5t74 -39.5t161.5 -13q117 0 163 29.5t46 101.5v377h208z" />
    <glyph glyph-name="v" unicode="v" 
d="M11 669h254l301 -444l314 444h244l-428 -605q-56 -75 -134 -75q-80 0 -132 75z" />
    <glyph glyph-name="w" unicode="w" horiz-adv-x="1260" 
d="M841 60l-107 189q-78 139 -108 201q-23 -53 -106 -200l-107 -190q-40 -71 -114 -71q-41 0 -72 23.5t-44 68.5l-170 588h207l63 -233q32 -115 45 -184q29 63 94 185l90 168q24 46 50.5 60.5t67.5 14.5q42 0 69 -14.5t51 -60.5l89 -169q58 -106 94 -184q12 59 46 184
l63 233h202l-173 -588q-13 -45 -44 -68.5t-72 -23.5q-74 0 -114 71z" />
    <glyph glyph-name="x" unicode="x" horiz-adv-x="1040" 
d="M745 669h268l-211 -193q-117 -106 -149 -130q24 -16 162 -145l214 -201h-292l-228 221l-235 -221h-257l218 201q114 105 156 137q-31 22 -156 139l-205 192h287l213 -208z" />
    <glyph glyph-name="y" unicode="y" horiz-adv-x="1028" 
d="M761 669h260l-397 -448v-221h-208v222l-408 447h266l160 -186q87 -100 91 -105q18 26 84 106z" />
    <glyph glyph-name="z" unicode="z" horiz-adv-x="899" 
d="M891 172l-125 -172h-634q-41 0 -68.5 22.5t-27.5 61.5q0 48 45 83l244 192q92 74 184 140q-48 -4 -230 -4h-268l132 174h617q41 0 68.5 -22.5t27.5 -61.5q0 -48 -45 -82l-247 -196q-132 -104 -182 -139q66 4 266 4h243z" />
    <glyph glyph-name="braceleft" unicode="{" horiz-adv-x="361" 
d="M313 793v-121q-60 0 -60 -22v-223q0 -75 -57 -98q57 -19 57 -98v-218q0 -22 60 -22v-120h-67q-114 0 -114 123v246q0 35 -61 36v106q61 1 61 35v252q0 124 114 124h67z" />
    <glyph glyph-name="bar" unicode="|" horiz-adv-x="299" 
d="M204 755v-854h-110v854h110z" />
    <glyph glyph-name="braceright" unicode="}" horiz-adv-x="361" 
d="M229 669v-252q0 -34 61 -35v-106q-61 -1 -61 -36v-246q0 -123 -114 -123h-68v120q61 0 61 22v218q0 79 57 98q-57 23 -57 98v223q0 22 -61 22v121h68q114 0 114 -124z" />
    <glyph glyph-name="asciitilde" unicode="~" horiz-adv-x="567" 
d="M382 221q-37 0 -109.5 37t-108.5 37q-63 0 -124 -82v164q64 66 137 66q36 0 108 -36.5t112 -36.5q63 0 124 80v-164q-65 -65 -139 -65z" />
    <glyph glyph-name="nbspace" unicode="&#xa0;" horiz-adv-x="383" 
 />
    <glyph glyph-name="exclamdown" unicode="&#xa1;" horiz-adv-x="325" 
d="M270 0h-207v223l23 197h162l22 -197v-223zM277 584q0 -45 -32 -71.5t-81 -26.5q-48 0 -80 26.5t-32 71.5q0 44 32 70t80 26q49 0 81 -26t32 -70z" />
    <glyph glyph-name="cent" unicode="&#xa2;" horiz-adv-x="659" 
d="M416 669v-89h210l-93 -123h-117v-227h210l-93 -121h-117v-109h-82v109q-122 0 -203 68.5t-81 171.5q0 102 80.5 166.5t203.5 64.5v89h82zM334 230v227q-59 0 -98 -32t-39 -82t39 -81.5t98 -31.5z" />
    <glyph glyph-name="sterling" unicode="&#xa3;" horiz-adv-x="813" 
d="M101 403h102v58q0 98 71.5 153t218.5 55h311l-133 -174h-194q-37 0 -54 -10.5t-17 -35.5v-46h217l-102 -129h-115v-102h399l-134 -172h-640l134 172h38v102h-203z" />
    <glyph glyph-name="yen" unicode="&#xa5;" horiz-adv-x="1028" 
d="M897 173v-112h-273v-61h-208v61h-265v112h265v49l-13 14h-252v112h150l-293 321h266l160 -186q87 -100 91 -105q18 26 84 106l152 185h260l-285 -321h161v-112h-260l-13 -15v-48h273z" />
    <glyph glyph-name="brokenbar" unicode="&#xa6;" horiz-adv-x="299" 
d="M204 -99h-110v329h110v-329zM204 755v-310h-110v310h110z" />
    <glyph glyph-name="dieresis" unicode="&#xa8;" horiz-adv-x="430" 
d="M26 805q0 35 24 55t61 20t61.5 -20t24.5 -55q0 -34 -24.5 -53.5t-61.5 -19.5q-36 0 -60.5 19.5t-24.5 53.5zM234 805q0 35 24.5 55t60.5 20q37 0 61.5 -20t24.5 -55q0 -34 -24.5 -53.5t-61.5 -19.5q-36 0 -60.5 20t-24.5 53z" />
    <glyph glyph-name="copyright" unicode="&#xa9;" horiz-adv-x="778" 
d="M386 228h117l-41 -54h-76q-74 0 -123 46.5t-49 116.5t48.5 113.5t123.5 43.5h117l-41 -55h-76q-46 0 -77.5 -29.5t-31.5 -76.5q0 -46 31 -75.5t78 -29.5zM44 335q0 144 101.5 245t244.5 101t244.5 -101t101.5 -245q0 -143 -101.5 -244.5t-244.5 -101.5t-244.5 101.5
t-101.5 244.5zM85 334q0 -128 89.5 -217t217.5 -89q127 0 216.5 89.5t89.5 216.5t-90 218t-216 91q-128 0 -217.5 -91t-89.5 -218z" />
    <glyph glyph-name="ordfeminine" unicode="&#xaa;" horiz-adv-x="680" 
d="M646 284h-427l69 95h91q49 0 67 -1q-13 15 -38 53l-66 97l-173 -244h-134l236 332q31 42 73 42q44 0 72 -42z" />
    <glyph glyph-name="guillemotleft" unicode="&#xab;" horiz-adv-x="456" 
d="M203 397l-113 -72l113 -74v-93l-174 118v91l174 125v-95zM415 397l-113 -72l113 -74v-93l-174 118v91l174 125v-95z" />
    <glyph glyph-name="registered" unicode="&#xae;" horiz-adv-x="503" 
d="M250 642q-74 0 -121.5 -48.5t-47.5 -109.5q0 -63 47 -111.5t122 -48.5q73 0 126 47t53 113q0 60 -52.5 109t-126.5 49zM251 288q-90 0 -149 58t-59 138q0 81 59 138.5t149 57.5q91 0 151 -57t60 -139q0 -79 -61.5 -137.5t-149.5 -58.5zM321 442l28 -29h-62l-34 39h-34
v-39h-47v76h93q26 0 26 17q0 18 -26 18h-93l31 39h58q79 0 79 -54q0 -39 -40 -47q3 -2 9.5 -8.5z" />
    <glyph glyph-name="macron" unicode="&#xaf;" horiz-adv-x="393" 
d="M345 833v-83h-298v83h298z" />
    <glyph glyph-name="degree" unicode="&#xb0;" horiz-adv-x="395" 
d="M200 599q-72 0 -72 -72t72 -72q73 0 73 70q0 74 -73 74zM200 680q153 0 153 -153t-153 -153t-153 153t153 153z" />
    <glyph glyph-name="plusminus" unicode="&#xb1;" horiz-adv-x="629" 
d="M588 -2v-112h-546v112h546zM588 396v-112h-218v-218h-112v218h-216v112h216v216h112v-216h218z" />
    <glyph glyph-name="twosuperior" unicode="&#xb2;" horiz-adv-x="496" 
d="M52 600l66 87h196q144 0 144 -104q0 -44 -31.5 -70t-94.5 -26h-159q-35 0 -35 -25v-23h323l-67 -86h-356v108q0 92 126 92h159q35 0 35 24q0 23 -35 23h-271z" />
    <glyph glyph-name="threesuperior" unicode="&#xb3;" horiz-adv-x="484" 
d="M19 353l65 86h229q32 0 32 22q0 23 -32 23h-200l54 72h148q29 0 29 23q0 21 -29 21h-280l66 87h209q62 0 97 -24t35 -69q0 -27 -13.5 -45t-31.5 -24q23 -7 37.5 -26.5t14.5 -48.5q0 -97 -136 -97h-294z" />
    <glyph glyph-name="acute" unicode="&#xb4;" horiz-adv-x="393" 
d="M374 867v-113l-298 -39v83z" />
    <glyph glyph-name="periodcentered" unicode="&#xb7;" horiz-adv-x="309" 
d="M42 337q0 45 32 71.5t80 26.5q49 0 81 -26.5t32 -71.5q0 -44 -32 -70t-81 -26q-48 0 -80 26t-32 70z" />
    <glyph glyph-name="cedilla" unicode="&#xb8;" horiz-adv-x="298" 
d="M65 -31h155l-83 -224h-72v224z" />
    <glyph glyph-name="onesuperior" unicode="&#xb9;" horiz-adv-x="251" 
d="M20 600l62 87h123v-334h-104v247h-81z" />
    <glyph glyph-name="ordmasculine" unicode="&#xba;" horiz-adv-x="641" 
d="M321 658q136 0 202.5 -46t66.5 -144t-67 -144.5t-202 -46.5q-136 0 -203 46.5t-67 144.5t67 144t203 46zM321 374q89 0 122 18.5t33 75.5t-33 75.5t-122 18.5q-90 0 -123 -18.5t-33 -75.5t33 -75.5t123 -18.5z" />
    <glyph glyph-name="guillemotright" unicode="&#xbb;" horiz-adv-x="456" 
d="M160 325l-114 72v95l175 -125v-91l-175 -118v93zM371 325l-113 72v95l174 -125v-91l-174 -118v93z" />
    <glyph glyph-name="onequarter" unicode="&#xbc;" horiz-adv-x="926" 
d="M42 600l62 87h123v-334h-104v247h-81zM619 706h84l-533 -744h-91zM689 30h-217q-23 0 -37 13.5t-14 32.5q0 22 22 40l241 196q22 18 48 18q24 0 40.5 -15.5t16.5 -46.5v-155h95l-60 -83h-35v-39h-100v39zM689 113v49q0 21 2 43q-9 -9 -36 -31l-37 -30q-3 -2 -45 -33
q28 2 57 2h59z" />
    <glyph glyph-name="onehalf" unicode="&#xbd;" horiz-adv-x="950" 
d="M42 600l62 87h123v-334h-104v247h-81zM610 706h84l-533 -744h-91zM500 238l66 87h196q144 0 144 -104q0 -44 -31.5 -70t-94.5 -26h-159q-35 0 -35 -25v-23h323l-67 -86h-356v108q0 92 126 92h159q35 0 35 24q0 23 -35 23h-271z" />
    <glyph glyph-name="threequarters" unicode="&#xbe;" horiz-adv-x="1057" 
d="M42 353l65 86h229q32 0 32 22q0 23 -32 23h-200l54 72h148q29 0 29 23q0 21 -29 21h-280l66 87h209q62 0 97 -24t35 -69q0 -27 -13.5 -45t-31.5 -24q23 -7 37.5 -26.5t14.5 -48.5q0 -97 -136 -97h-294zM768 706h84l-533 -744h-91zM820 30h-217q-23 0 -37 13.5t-14 32.5
q0 22 22 40l241 196q22 18 48 18q24 0 40.5 -15.5t16.5 -46.5v-155h95l-60 -83h-35v-39h-100v39zM820 113v49q0 21 2 43q-9 -9 -36 -31l-37 -30q-3 -2 -45 -33q28 2 57 2h59z" />
    <glyph glyph-name="questiondown" unicode="&#xbf;" horiz-adv-x="743" 
d="M732 174l-134 -174h-284q-147 0 -216.5 54.5t-69.5 153.5q0 90 62.5 141t187.5 51h101q20 0 20 16v4h171v-21q0 -65 -37 -98.5t-120 -33.5h-115q-71 0 -71 -47q0 -25 17 -35.5t54 -10.5h434zM589 584q0 -45 -32 -71.5t-81 -26.5q-48 0 -80 26.5t-32 71.5q0 44 32 70
t80 26q49 0 81 -26t32 -70z" />
    <glyph glyph-name="Agrave" unicode="&#xc0;" 
d="M1124 0h-778l125 172h168q87 0 119 -2q-16 21 -68 97l-120 177l-314 -444h-245l429 605q54 75 134 75t132 -75zM688 798v-83l-298 39v113z" />
    <glyph glyph-name="Aacute" unicode="&#xc1;" 
d="M1124 0h-778l125 172h168q87 0 119 -2q-16 21 -68 97l-120 177l-314 -444h-245l429 605q54 75 134 75t132 -75zM745 867v-113l-298 -39v83z" />
    <glyph glyph-name="Acircumflex" unicode="&#xc2;" 
d="M1124 0h-778l125 172h168q87 0 119 -2q-16 21 -68 97l-120 177l-314 -444h-245l429 605q54 75 134 75t132 -75zM634 867l93 -152h-99l-56 101h-9l-55 -101h-100l95 152h131z" />
    <glyph glyph-name="Atilde" unicode="&#xc3;" 
d="M1124 0h-778l125 172h168q87 0 119 -2q-16 21 -68 97l-120 177l-314 -444h-245l429 605q54 75 134 75t132 -75zM640 732q-25 0 -72 20.5t-73 20.5q-46 0 -77 -36v83q27 30 77 30q26 0 72.5 -21t72.5 -21q45 0 76 36v-82q-26 -30 -76 -30z" />
    <glyph glyph-name="Adieresis" unicode="&#xc4;" 
d="M1124 0h-778l125 172h168q87 0 119 -2q-16 21 -68 97l-120 177l-314 -444h-245l429 605q54 75 134 75t132 -75zM378 805q0 35 24 55t61 20t61.5 -20t24.5 -55q0 -34 -24.5 -53.5t-61.5 -19.5q-36 0 -60.5 19.5t-24.5 53.5zM586 805q0 35 24.5 55t60.5 20q37 0 61.5 -20
t24.5 -55q0 -34 -24.5 -53.5t-61.5 -19.5q-36 0 -60.5 20t-24.5 53z" />
    <glyph glyph-name="Aring" unicode="&#xc5;" 
d="M1124 0h-778l125 172h168q87 0 119 -2q-16 21 -68 97l-120 177l-314 -444h-245l429 605q54 75 134 75t132 -75zM614 873h-94q-19 0 -19 -18v-51q0 -18 19 -18h94q20 0 20 18v51q0 18 -20 18zM712 861v-63q0 -83 -104 -83h-82q-103 0 -103 83v63q0 84 103 84h82
q104 0 104 -84z" />
    <glyph glyph-name="AE" unicode="&#xc6;" horiz-adv-x="1442" 
d="M565 669h867l-134 -174h-433v-80h530l-118 -152h-412v-91h570l-134 -172h-643v495h-53l-349 -495h-245l421 593q53 76 133 76z" />
    <glyph glyph-name="Ccedilla" unicode="&#xc7;" horiz-adv-x="923" 
d="M445 172h469l-133 -172h-336q-174 0 -288.5 97.5t-114.5 243.5t113.5 237t289.5 91h469l-133 -174h-336q-85 0 -140.5 -45.5t-55.5 -117.5q0 -71 55.5 -115.5t140.5 -44.5zM445 -31h154l-82 -224h-72v224z" />
    <glyph glyph-name="Egrave" unicode="&#xc8;" horiz-adv-x="848" 
d="M271 172h569l-133 -172h-644v669h775l-134 -174h-433v-80h530l-119 -152h-411v-91zM554 798v-83l-298 39v113z" />
    <glyph glyph-name="Eacute" unicode="&#xc9;" horiz-adv-x="848" 
d="M271 172h569l-133 -172h-644v669h775l-134 -174h-433v-80h530l-119 -152h-411v-91zM592 867v-113l-298 -39v83z" />
    <glyph glyph-name="Ecircumflex" unicode="&#xca;" horiz-adv-x="848" 
d="M271 172h569l-133 -172h-644v669h775l-134 -174h-433v-80h530l-119 -152h-411v-91zM500 867l93 -152h-99l-56 101h-9l-55 -101h-100l95 152h131z" />
    <glyph glyph-name="Edieresis" unicode="&#xcb;" horiz-adv-x="848" 
d="M271 172h569l-133 -172h-644v669h775l-134 -174h-433v-80h530l-119 -152h-411v-91zM231 805q0 35 24 55t61 20t61.5 -20t24.5 -55q0 -34 -24.5 -53.5t-61.5 -19.5q-36 0 -60.5 19.5t-24.5 53.5zM439 805q0 35 24.5 55t60.5 20q37 0 61.5 -20t24.5 -55q0 -34 -24.5 -53.5
t-61.5 -19.5q-36 0 -60.5 20t-24.5 53z" />
    <glyph glyph-name="Igrave" unicode="&#xcc;" horiz-adv-x="339" 
d="M273 669v-669h-207v669h207zM291 798v-83l-298 39v113z" />
    <glyph glyph-name="Iacute" unicode="&#xcd;" horiz-adv-x="339" 
d="M273 669v-669h-207v669h207zM348 867v-113l-298 -39v83z" />
    <glyph glyph-name="Icircumflex" unicode="&#xce;" horiz-adv-x="339" 
d="M273 669v-669h-207v669h207zM236 867l93 -152h-99l-56 101h-9l-55 -101h-100l95 152h131z" />
    <glyph glyph-name="Idieresis" unicode="&#xcf;" horiz-adv-x="339" 
d="M273 669v-669h-207v669h207zM-19 805q0 35 24 55t61 20t61.5 -20t24.5 -55q0 -34 -24.5 -53.5t-61.5 -19.5q-36 0 -60.5 19.5t-24.5 53.5zM189 805q0 35 24.5 55t60.5 20q37 0 61.5 -20t24.5 -55q0 -34 -24.5 -53.5t-61.5 -19.5q-36 0 -60.5 20t-24.5 53z" />
    <glyph glyph-name="Eth" unicode="&#xd0;" horiz-adv-x="1041" 
d="M118 415h479l-118 -152h-123v-91h240q87 0 142.5 44.5t55.5 115.5q0 70 -57 116.5t-141 46.5h-447l131 174h316q176 0 289.5 -92t113.5 -236q0 -146 -114.5 -243.5t-288.5 -97.5h-447v263h-149z" />
    <glyph glyph-name="Ntilde" unicode="&#xd1;" horiz-adv-x="914" 
d="M741 -11q-45 0 -83 36l-410 368v-393h-188v555q0 63 32.5 94t80.5 31q43 0 83 -36l410 -368v393h189v-554q0 -63 -32.5 -94.5t-81.5 -31.5zM526 732q-25 0 -72 20.5t-73 20.5q-46 0 -77 -36v83q27 30 77 30q26 0 72.5 -21t72.5 -21q45 0 76 36v-82q-26 -30 -76 -30z" />
    <glyph glyph-name="Ograve" unicode="&#xd2;" horiz-adv-x="1062" 
d="M531 680q246 0 367.5 -84t121.5 -261q0 -178 -121.5 -262t-367.5 -84q-247 0 -368 84t-121 262t121 261.5t368 83.5zM531 163q162 0 222.5 33.5t60.5 138.5q0 104 -60 137.5t-223 33.5t-223 -33.5t-60 -137.5q0 -105 60.5 -138.5t222.5 -33.5zM651 798v-83l-298 39v113z
" />
    <glyph glyph-name="Oacute" unicode="&#xd3;" horiz-adv-x="1062" 
d="M531 680q246 0 367.5 -84t121.5 -261q0 -178 -121.5 -262t-367.5 -84q-247 0 -368 84t-121 262t121 261.5t368 83.5zM531 163q162 0 222.5 33.5t60.5 138.5q0 104 -60 137.5t-223 33.5t-223 -33.5t-60 -137.5q0 -105 60.5 -138.5t222.5 -33.5zM708 867v-113l-298 -39v83z
" />
    <glyph glyph-name="Ocircumflex" unicode="&#xd4;" horiz-adv-x="1062" 
d="M531 680q246 0 367.5 -84t121.5 -261q0 -178 -121.5 -262t-367.5 -84q-247 0 -368 84t-121 262t121 261.5t368 83.5zM531 163q162 0 222.5 33.5t60.5 138.5q0 104 -60 137.5t-223 33.5t-223 -33.5t-60 -137.5q0 -105 60.5 -138.5t222.5 -33.5zM597 867l93 -152h-99
l-56 101h-9l-55 -101h-100l95 152h131z" />
    <glyph glyph-name="Otilde" unicode="&#xd5;" horiz-adv-x="1062" 
d="M531 680q246 0 367.5 -84t121.5 -261q0 -178 -121.5 -262t-367.5 -84q-247 0 -368 84t-121 262t121 261.5t368 83.5zM531 163q162 0 222.5 33.5t60.5 138.5q0 104 -60 137.5t-223 33.5t-223 -33.5t-60 -137.5q0 -105 60.5 -138.5t222.5 -33.5zM603 732q-25 0 -72 20.5
t-73 20.5q-46 0 -77 -36v83q27 30 77 30q26 0 72.5 -21t72.5 -21q45 0 76 36v-82q-26 -30 -76 -30z" />
    <glyph glyph-name="Odieresis" unicode="&#xd6;" horiz-adv-x="1062" 
d="M531 680q246 0 367.5 -84t121.5 -261q0 -178 -121.5 -262t-367.5 -84q-247 0 -368 84t-121 262t121 261.5t368 83.5zM531 163q162 0 222.5 33.5t60.5 138.5q0 104 -60 137.5t-223 33.5t-223 -33.5t-60 -137.5q0 -105 60.5 -138.5t222.5 -33.5zM342 805q0 35 24 55t61 20
t61.5 -20t24.5 -55q0 -34 -24.5 -53.5t-61.5 -19.5q-36 0 -60.5 19.5t-24.5 53.5zM550 805q0 35 24.5 55t60.5 20q37 0 61.5 -20t24.5 -55q0 -34 -24.5 -53.5t-61.5 -19.5q-36 0 -60.5 20t-24.5 53z" />
    <glyph glyph-name="multiply" unicode="&#xd7;" horiz-adv-x="629" 
d="M531 190l-80 -79l-153 154l-154 -153l-79 78l154 154l-153 154l79 78l153 -153l153 153l79 -79l-153 -153z" />
    <glyph glyph-name="Oslash" unicode="&#xd8;" horiz-adv-x="1062" 
d="M531 680q163 0 271 -36l75 72l51 -47l-57 -55q149 -84 149 -279q0 -178 -121.5 -262t-367.5 -84q-169 0 -273 37l-75 -73l-49 47l57 55q-149 83 -149 280q0 178 121 261.5t368 83.5zM531 163q162 0 222.5 33.5t60.5 138.5q0 60 -19 95t-62 53l-326 -315q42 -5 124 -5z
M248 335q0 -60 18.5 -95.5t60.5 -53.5l326 315q-57 5 -122 5q-163 0 -223 -33.5t-60 -137.5z" />
    <glyph glyph-name="Ugrave" unicode="&#xd9;" horiz-adv-x="986" 
d="M932 669v-377q0 -303 -417 -303q-239 0 -350 75t-111 228v377h206v-377q0 -52 19.5 -78.5t74 -39.5t161.5 -13q117 0 163 29.5t46 101.5v377h208zM613 798v-83l-298 39v113z" />
    <glyph glyph-name="Uacute" unicode="&#xda;" horiz-adv-x="986" 
d="M932 669v-377q0 -303 -417 -303q-239 0 -350 75t-111 228v377h206v-377q0 -52 19.5 -78.5t74 -39.5t161.5 -13q117 0 163 29.5t46 101.5v377h208zM670 867v-113l-298 -39v83z" />
    <glyph glyph-name="Ucircumflex" unicode="&#xdb;" horiz-adv-x="986" 
d="M932 669v-377q0 -303 -417 -303q-239 0 -350 75t-111 228v377h206v-377q0 -52 19.5 -78.5t74 -39.5t161.5 -13q117 0 163 29.5t46 101.5v377h208zM559 867l93 -152h-99l-56 101h-9l-55 -101h-100l95 152h131z" />
    <glyph glyph-name="Udieresis" unicode="&#xdc;" horiz-adv-x="986" 
d="M932 669v-377q0 -303 -417 -303q-239 0 -350 75t-111 228v377h206v-377q0 -52 19.5 -78.5t74 -39.5t161.5 -13q117 0 163 29.5t46 101.5v377h208zM304 805q0 35 24 55t61 20t61.5 -20t24.5 -55q0 -34 -24.5 -53.5t-61.5 -19.5q-36 0 -60.5 19.5t-24.5 53.5zM512 805
q0 35 24.5 55t60.5 20q37 0 61.5 -20t24.5 -55q0 -34 -24.5 -53.5t-61.5 -19.5q-36 0 -60.5 20t-24.5 53z" />
    <glyph glyph-name="Yacute" unicode="&#xdd;" horiz-adv-x="1028" 
d="M761 669h260l-397 -448v-221h-208v222l-408 447h266l160 -186q87 -100 91 -105q18 26 84 106zM687 867v-113l-298 -39v83z" />
    <glyph glyph-name="Thorn" unicode="&#xde;" horiz-adv-x="958" 
d="M63 0v669h207v-94h321q155 0 242.5 -67t87.5 -180t-87.5 -181.5t-241.5 -68.5h-273l137 174h155q48 0 75 20t27 55q0 36 -27 57t-75 21h-341v-405h-207z" />
    <glyph glyph-name="germandbls" unicode="&#xdf;" horiz-adv-x="1927" 
d="M319 402h364q251 0 251 -183q0 -219 -287 -219h-623l133 172h506q37 0 54 11.5t17 37.5q0 48 -71 48h-364q-125 0 -188 51.5t-63 140.5q0 99 70 153.5t217 54.5h581l-133 -174h-464q-37 0 -54 -10.5t-17 -35.5q0 -47 71 -47zM1282 402h364q251 0 251 -183
q0 -219 -287 -219h-623l133 172h506q37 0 54 11.5t17 37.5q0 48 -71 48h-364q-125 0 -188 51.5t-63 140.5q0 99 70 153.5t217 54.5h581l-133 -174h-464q-37 0 -54 -10.5t-17 -35.5q0 -47 71 -47z" />
    <glyph glyph-name="agrave" unicode="&#xe0;" 
d="M1124 0h-778l125 172h168q87 0 119 -2q-16 21 -68 97l-120 177l-314 -444h-245l429 605q54 75 134 75t132 -75zM688 798v-83l-298 39v113z" />
    <glyph glyph-name="aacute" unicode="&#xe1;" 
d="M1124 0h-778l125 172h168q87 0 119 -2q-16 21 -68 97l-120 177l-314 -444h-245l429 605q54 75 134 75t132 -75zM745 867v-113l-298 -39v83z" />
    <glyph glyph-name="acircumflex" unicode="&#xe2;" 
d="M1124 0h-778l125 172h168q87 0 119 -2q-16 21 -68 97l-120 177l-314 -444h-245l429 605q54 75 134 75t132 -75zM634 867l93 -152h-99l-56 101h-9l-55 -101h-100l95 152h131z" />
    <glyph glyph-name="atilde" unicode="&#xe3;" 
d="M1124 0h-778l125 172h168q87 0 119 -2q-16 21 -68 97l-120 177l-314 -444h-245l429 605q54 75 134 75t132 -75zM640 732q-25 0 -72 20.5t-73 20.5q-46 0 -77 -36v83q27 30 77 30q26 0 72.5 -21t72.5 -21q45 0 76 36v-82q-26 -30 -76 -30z" />
    <glyph glyph-name="adieresis" unicode="&#xe4;" 
d="M1124 0h-778l125 172h168q87 0 119 -2q-16 21 -68 97l-120 177l-314 -444h-245l429 605q54 75 134 75t132 -75zM378 805q0 35 24 55t61 20t61.5 -20t24.5 -55q0 -34 -24.5 -53.5t-61.5 -19.5q-36 0 -60.5 19.5t-24.5 53.5zM586 805q0 35 24.5 55t60.5 20q37 0 61.5 -20
t24.5 -55q0 -34 -24.5 -53.5t-61.5 -19.5q-36 0 -60.5 20t-24.5 53z" />
    <glyph glyph-name="aring" unicode="&#xe5;" 
d="M1124 0h-778l125 172h168q87 0 119 -2q-16 21 -68 97l-120 177l-314 -444h-245l429 605q54 75 134 75t132 -75zM614 873h-94q-19 0 -19 -18v-51q0 -18 19 -18h94q20 0 20 18v51q0 18 -20 18zM712 861v-63q0 -83 -104 -83h-82q-103 0 -103 83v63q0 84 103 84h82
q104 0 104 -84z" />
    <glyph glyph-name="ae" unicode="&#xe6;" horiz-adv-x="1442" 
d="M565 669h867l-134 -174h-433v-80h530l-118 -152h-412v-91h570l-134 -172h-643v495h-53l-349 -495h-245l421 593q53 76 133 76z" />
    <glyph glyph-name="ccedilla" unicode="&#xe7;" horiz-adv-x="923" 
d="M445 172h469l-133 -172h-336q-174 0 -288.5 97.5t-114.5 243.5t113.5 237t289.5 91h469l-133 -174h-336q-85 0 -140.5 -45.5t-55.5 -117.5q0 -71 55.5 -115.5t140.5 -44.5zM445 -31h154l-82 -224h-72v224z" />
    <glyph glyph-name="egrave" unicode="&#xe8;" horiz-adv-x="848" 
d="M271 172h569l-133 -172h-644v669h775l-134 -174h-433v-80h530l-119 -152h-411v-91zM554 798v-83l-298 39v113z" />
    <glyph glyph-name="eacute" unicode="&#xe9;" horiz-adv-x="848" 
d="M271 172h569l-133 -172h-644v669h775l-134 -174h-433v-80h530l-119 -152h-411v-91zM592 867v-113l-298 -39v83z" />
    <glyph glyph-name="ecircumflex" unicode="&#xea;" horiz-adv-x="848" 
d="M271 172h569l-133 -172h-644v669h775l-134 -174h-433v-80h530l-119 -152h-411v-91zM500 867l93 -152h-99l-56 101h-9l-55 -101h-100l95 152h131z" />
    <glyph glyph-name="edieresis" unicode="&#xeb;" horiz-adv-x="848" 
d="M271 172h569l-133 -172h-644v669h775l-134 -174h-433v-80h530l-119 -152h-411v-91zM231 805q0 35 24 55t61 20t61.5 -20t24.5 -55q0 -34 -24.5 -53.5t-61.5 -19.5q-36 0 -60.5 19.5t-24.5 53.5zM439 805q0 35 24.5 55t60.5 20q37 0 61.5 -20t24.5 -55q0 -34 -24.5 -53.5
t-61.5 -19.5q-36 0 -60.5 20t-24.5 53z" />
    <glyph glyph-name="igrave" unicode="&#xec;" horiz-adv-x="339" 
d="M273 669v-669h-207v669h207zM291 798v-83l-298 39v113z" />
    <glyph glyph-name="iacute" unicode="&#xed;" horiz-adv-x="339" 
d="M273 669v-669h-207v669h207zM348 867v-113l-298 -39v83z" />
    <glyph glyph-name="icircumflex" unicode="&#xee;" horiz-adv-x="339" 
d="M273 669v-669h-207v669h207zM236 867l93 -152h-99l-56 101h-9l-55 -101h-100l95 152h131z" />
    <glyph glyph-name="idieresis" unicode="&#xef;" horiz-adv-x="339" 
d="M273 669v-669h-207v669h207zM-19 805q0 35 24 55t61 20t61.5 -20t24.5 -55q0 -34 -24.5 -53.5t-61.5 -19.5q-36 0 -60.5 19.5t-24.5 53.5zM189 805q0 35 24.5 55t60.5 20q37 0 61.5 -20t24.5 -55q0 -34 -24.5 -53.5t-61.5 -19.5q-36 0 -60.5 20t-24.5 53z" />
    <glyph glyph-name="eth" unicode="&#xf0;" horiz-adv-x="1041" 
d="M118 415h479l-118 -152h-123v-91h240q87 0 142.5 44.5t55.5 115.5q0 70 -57 116.5t-141 46.5h-447l131 174h316q176 0 289.5 -92t113.5 -236q0 -146 -114.5 -243.5t-288.5 -97.5h-447v263h-149z" />
    <glyph glyph-name="ntilde" unicode="&#xf1;" horiz-adv-x="914" 
d="M741 -11q-45 0 -83 36l-410 368v-393h-188v555q0 63 32.5 94t80.5 31q43 0 83 -36l410 -368v393h189v-554q0 -63 -32.5 -94.5t-81.5 -31.5zM526 732q-25 0 -72 20.5t-73 20.5q-46 0 -77 -36v83q27 30 77 30q26 0 72.5 -21t72.5 -21q45 0 76 36v-82q-26 -30 -76 -30z" />
    <glyph glyph-name="ograve" unicode="&#xf2;" horiz-adv-x="1062" 
d="M531 680q246 0 367.5 -84t121.5 -261q0 -178 -121.5 -262t-367.5 -84q-247 0 -368 84t-121 262t121 261.5t368 83.5zM531 163q162 0 222.5 33.5t60.5 138.5q0 104 -60 137.5t-223 33.5t-223 -33.5t-60 -137.5q0 -105 60.5 -138.5t222.5 -33.5zM651 798v-83l-298 39v113z
" />
    <glyph glyph-name="oacute" unicode="&#xf3;" horiz-adv-x="1062" 
d="M531 680q246 0 367.5 -84t121.5 -261q0 -178 -121.5 -262t-367.5 -84q-247 0 -368 84t-121 262t121 261.5t368 83.5zM531 163q162 0 222.5 33.5t60.5 138.5q0 104 -60 137.5t-223 33.5t-223 -33.5t-60 -137.5q0 -105 60.5 -138.5t222.5 -33.5zM708 867v-113l-298 -39v83z
" />
    <glyph glyph-name="ocircumflex" unicode="&#xf4;" horiz-adv-x="1062" 
d="M531 680q246 0 367.5 -84t121.5 -261q0 -178 -121.5 -262t-367.5 -84q-247 0 -368 84t-121 262t121 261.5t368 83.5zM531 163q162 0 222.5 33.5t60.5 138.5q0 104 -60 137.5t-223 33.5t-223 -33.5t-60 -137.5q0 -105 60.5 -138.5t222.5 -33.5zM597 867l93 -152h-99
l-56 101h-9l-55 -101h-100l95 152h131z" />
    <glyph glyph-name="otilde" unicode="&#xf5;" horiz-adv-x="1062" 
d="M531 680q246 0 367.5 -84t121.5 -261q0 -178 -121.5 -262t-367.5 -84q-247 0 -368 84t-121 262t121 261.5t368 83.5zM531 163q162 0 222.5 33.5t60.5 138.5q0 104 -60 137.5t-223 33.5t-223 -33.5t-60 -137.5q0 -105 60.5 -138.5t222.5 -33.5zM603 732q-25 0 -72 20.5
t-73 20.5q-46 0 -77 -36v83q27 30 77 30q26 0 72.5 -21t72.5 -21q45 0 76 36v-82q-26 -30 -76 -30z" />
    <glyph glyph-name="odieresis" unicode="&#xf6;" horiz-adv-x="1062" 
d="M531 680q246 0 367.5 -84t121.5 -261q0 -178 -121.5 -262t-367.5 -84q-247 0 -368 84t-121 262t121 261.5t368 83.5zM531 163q162 0 222.5 33.5t60.5 138.5q0 104 -60 137.5t-223 33.5t-223 -33.5t-60 -137.5q0 -105 60.5 -138.5t222.5 -33.5zM342 805q0 35 24 55t61 20
t61.5 -20t24.5 -55q0 -34 -24.5 -53.5t-61.5 -19.5q-36 0 -60.5 19.5t-24.5 53.5zM550 805q0 35 24.5 55t60.5 20q37 0 61.5 -20t24.5 -55q0 -34 -24.5 -53.5t-61.5 -19.5q-36 0 -60.5 20t-24.5 53z" />
    <glyph glyph-name="divide" unicode="&#xf7;" horiz-adv-x="629" 
d="M588 396v-112h-546v112h546zM202 572q0 45 32 71.5t80 26.5q49 0 81 -26.5t32 -71.5q0 -44 -32 -70t-81 -26q-48 0 -80 26t-32 70zM202 101q0 45 32 71.5t80 26.5q49 0 81 -26.5t32 -71.5q0 -44 -32 -70t-81 -26q-48 0 -80 26t-32 70z" />
    <glyph glyph-name="oslash" unicode="&#xf8;" horiz-adv-x="1062" 
d="M531 680q163 0 271 -36l75 72l51 -47l-57 -55q149 -84 149 -279q0 -178 -121.5 -262t-367.5 -84q-169 0 -273 37l-75 -73l-49 47l57 55q-149 83 -149 280q0 178 121 261.5t368 83.5zM531 163q162 0 222.5 33.5t60.5 138.5q0 60 -19 95t-62 53l-326 -315q42 -5 124 -5z
M248 335q0 -60 18.5 -95.5t60.5 -53.5l326 315q-57 5 -122 5q-163 0 -223 -33.5t-60 -137.5z" />
    <glyph glyph-name="ugrave" unicode="&#xf9;" horiz-adv-x="986" 
d="M932 669v-377q0 -303 -417 -303q-239 0 -350 75t-111 228v377h206v-377q0 -52 19.5 -78.5t74 -39.5t161.5 -13q117 0 163 29.5t46 101.5v377h208zM613 798v-83l-298 39v113z" />
    <glyph glyph-name="uacute" unicode="&#xfa;" horiz-adv-x="986" 
d="M932 669v-377q0 -303 -417 -303q-239 0 -350 75t-111 228v377h206v-377q0 -52 19.5 -78.5t74 -39.5t161.5 -13q117 0 163 29.5t46 101.5v377h208zM670 867v-113l-298 -39v83z" />
    <glyph glyph-name="ucircumflex" unicode="&#xfb;" horiz-adv-x="986" 
d="M932 669v-377q0 -303 -417 -303q-239 0 -350 75t-111 228v377h206v-377q0 -52 19.5 -78.5t74 -39.5t161.5 -13q117 0 163 29.5t46 101.5v377h208zM559 867l93 -152h-99l-56 101h-9l-55 -101h-100l95 152h131z" />
    <glyph glyph-name="udieresis" unicode="&#xfc;" horiz-adv-x="986" 
d="M932 669v-377q0 -303 -417 -303q-239 0 -350 75t-111 228v377h206v-377q0 -52 19.5 -78.5t74 -39.5t161.5 -13q117 0 163 29.5t46 101.5v377h208zM304 805q0 35 24 55t61 20t61.5 -20t24.5 -55q0 -34 -24.5 -53.5t-61.5 -19.5q-36 0 -60.5 19.5t-24.5 53.5zM512 805
q0 35 24.5 55t60.5 20q37 0 61.5 -20t24.5 -55q0 -34 -24.5 -53.5t-61.5 -19.5q-36 0 -60.5 20t-24.5 53z" />
    <glyph glyph-name="yacute" unicode="&#xfd;" horiz-adv-x="1028" 
d="M761 669h260l-397 -448v-221h-208v222l-408 447h266l160 -186q87 -100 91 -105q18 26 84 106zM687 867v-113l-298 -39v83z" />
    <glyph glyph-name="thorn" unicode="&#xfe;" horiz-adv-x="958" 
d="M63 0v669h207v-94h321q155 0 242.5 -67t87.5 -180t-87.5 -181.5t-241.5 -68.5h-273l137 174h155q48 0 75 20t27 55q0 36 -27 57t-75 21h-341v-405h-207z" />
    <glyph glyph-name="ydieresis" unicode="&#xff;" horiz-adv-x="1028" 
d="M761 669h260l-397 -448v-221h-208v222l-408 447h266l160 -186q87 -100 91 -105q18 26 84 106zM335 805q0 35 24 55t61 20t61.5 -20t24.5 -55q0 -34 -24.5 -53.5t-61.5 -19.5q-36 0 -60.5 19.5t-24.5 53.5zM543 805q0 35 24.5 55t60.5 20q37 0 61.5 -20t24.5 -55
q0 -34 -24.5 -53.5t-61.5 -19.5q-36 0 -60.5 20t-24.5 53z" />
    <glyph glyph-name="Amacron" unicode="&#x100;" 
d="M1124 0h-778l125 172h168q87 0 119 -2q-16 21 -68 97l-120 177l-314 -444h-245l429 605q54 75 134 75t132 -75zM716 833v-83h-298v83h298z" />
    <glyph glyph-name="amacron" unicode="&#x101;" 
d="M1124 0h-778l125 172h168q87 0 119 -2q-16 21 -68 97l-120 177l-314 -444h-245l429 605q54 75 134 75t132 -75zM716 833v-83h-298v83h298z" />
    <glyph glyph-name="Abreve" unicode="&#x102;" 
d="M1124 0h-778l125 172h168q87 0 119 -2q-16 21 -68 97l-120 177l-314 -444h-245l429 605q54 75 134 75t132 -75zM628 867h99q0 -30 -11.5 -63t-42 -61t-74.5 -28h-62q-44 0 -75 28t-42.5 61t-11.5 63h100q0 -31 13.5 -61t42.5 -30h14q26 0 38 30t12 61z" />
    <glyph glyph-name="abreve" unicode="&#x103;" 
d="M1124 0h-778l125 172h168q87 0 119 -2q-16 21 -68 97l-120 177l-314 -444h-245l429 605q54 75 134 75t132 -75zM628 867h99q0 -30 -11.5 -63t-42 -61t-74.5 -28h-62q-44 0 -75 28t-42.5 61t-11.5 63h100q0 -31 13.5 -61t42.5 -30h14q26 0 38 30t12 61z" />
    <glyph glyph-name="Aogonek" unicode="&#x104;" 
d="M1124 -122v-128h-104q-54 0 -86.5 25t-32.5 62q0 48 50 88l92 75h-697l125 172h168q87 0 119 -2q-16 21 -68 97l-120 177l-314 -444h-245l429 605q54 75 134 75t132 -75l418 -605l-109 -88q-10 -9 -10 -18q0 -16 22 -16h97z" />
    <glyph glyph-name="aogonek" unicode="&#x105;" 
d="M1124 -122v-128h-104q-54 0 -86.5 25t-32.5 62q0 48 50 88l92 75h-697l125 172h168q87 0 119 -2q-16 21 -68 97l-120 177l-314 -444h-245l429 605q54 75 134 75t132 -75l418 -605l-109 -88q-10 -9 -10 -18q0 -16 22 -16h97z" />
    <glyph glyph-name="Cacute" unicode="&#x106;" horiz-adv-x="923" 
d="M445 172h469l-133 -172h-336q-174 0 -288.5 97.5t-114.5 243.5t113.5 237t289.5 91h469l-133 -174h-336q-85 0 -140.5 -45.5t-55.5 -117.5q0 -71 55.5 -115.5t140.5 -44.5zM686 867v-113l-298 -39v83z" />
    <glyph glyph-name="cacute" unicode="&#x107;" horiz-adv-x="923" 
d="M445 172h469l-133 -172h-336q-174 0 -288.5 97.5t-114.5 243.5t113.5 237t289.5 91h469l-133 -174h-336q-85 0 -140.5 -45.5t-55.5 -117.5q0 -71 55.5 -115.5t140.5 -44.5zM686 867v-113l-298 -39v83z" />
    <glyph glyph-name="Cdotaccent" unicode="&#x10a;" horiz-adv-x="923" 
d="M445 172h469l-133 -172h-336q-174 0 -288.5 97.5t-114.5 243.5t113.5 237t289.5 91h469l-133 -174h-336q-85 0 -140.5 -45.5t-55.5 -117.5q0 -71 55.5 -115.5t140.5 -44.5zM433 805q0 35 24 55t61 20t61.5 -20t24.5 -55q0 -34 -24.5 -53.5t-61.5 -19.5q-36 0 -60.5 19.5
t-24.5 53.5z" />
    <glyph glyph-name="cdotaccent" unicode="&#x10b;" horiz-adv-x="923" 
d="M445 172h469l-133 -172h-336q-174 0 -288.5 97.5t-114.5 243.5t113.5 237t289.5 91h469l-133 -174h-336q-85 0 -140.5 -45.5t-55.5 -117.5q0 -71 55.5 -115.5t140.5 -44.5zM433 805q0 35 24 55t61 20t61.5 -20t24.5 -55q0 -34 -24.5 -53.5t-61.5 -19.5q-36 0 -60.5 19.5
t-24.5 53.5z" />
    <glyph glyph-name="Ccaron" unicode="&#x10c;" horiz-adv-x="923" 
d="M445 172h469l-133 -172h-336q-174 0 -288.5 97.5t-114.5 243.5t113.5 237t289.5 91h469l-133 -174h-336q-85 0 -140.5 -45.5t-55.5 -117.5q0 -71 55.5 -115.5t140.5 -44.5zM444 715l-94 152h100l56 -101h9l55 101h99l-94 -152h-131z" />
    <glyph glyph-name="ccaron" unicode="&#x10d;" horiz-adv-x="923" 
d="M445 172h469l-133 -172h-336q-174 0 -288.5 97.5t-114.5 243.5t113.5 237t289.5 91h469l-133 -174h-336q-85 0 -140.5 -45.5t-55.5 -117.5q0 -71 55.5 -115.5t140.5 -44.5zM444 715l-94 152h100l56 -101h9l55 101h99l-94 -152h-131z" />
    <glyph glyph-name="Dcaron" unicode="&#x10e;" horiz-adv-x="956" 
d="M914 341q0 -146 -114.5 -243.5t-288.5 -97.5h-448v417h208v-245h240q87 0 142.5 44.5t55.5 115.5q0 70 -57 116.5t-141 46.5h-448l132 174h316q176 0 289.5 -92t113.5 -236zM346 715l-94 152h100l56 -101h9l55 101h99l-94 -152h-131z" />
    <glyph glyph-name="dcaron" unicode="&#x10f;" horiz-adv-x="956" 
d="M914 341q0 -146 -114.5 -243.5t-288.5 -97.5h-448v417h208v-245h240q87 0 142.5 44.5t55.5 115.5q0 70 -57 116.5t-141 46.5h-448l132 174h316q176 0 289.5 -92t113.5 -236zM346 715l-94 152h100l56 -101h9l55 101h99l-94 -152h-131z" />
    <glyph glyph-name="Dcroat" unicode="&#x110;" horiz-adv-x="1041" 
d="M118 415h479l-118 -152h-123v-91h240q87 0 142.5 44.5t55.5 115.5q0 70 -57 116.5t-141 46.5h-447l131 174h316q176 0 289.5 -92t113.5 -236q0 -146 -114.5 -243.5t-288.5 -97.5h-447v263h-149z" />
    <glyph glyph-name="dcroat" unicode="&#x111;" horiz-adv-x="1041" 
d="M118 415h479l-118 -152h-123v-91h240q87 0 142.5 44.5t55.5 115.5q0 70 -57 116.5t-141 46.5h-447l131 174h316q176 0 289.5 -92t113.5 -236q0 -146 -114.5 -243.5t-288.5 -97.5h-447v263h-149z" />
    <glyph glyph-name="Emacron" unicode="&#x112;" horiz-adv-x="848" 
d="M271 172h569l-133 -172h-644v669h775l-134 -174h-433v-80h530l-119 -152h-411v-91zM572 833v-83h-298v83h298z" />
    <glyph glyph-name="emacron" unicode="&#x113;" horiz-adv-x="848" 
d="M271 172h569l-133 -172h-644v669h775l-134 -174h-433v-80h530l-119 -152h-411v-91zM572 833v-83h-298v83h298z" />
    <glyph glyph-name="Edotaccent" unicode="&#x116;" horiz-adv-x="848" 
d="M271 172h569l-133 -172h-644v669h775l-134 -174h-433v-80h530l-119 -152h-411v-91zM355 805q0 35 24 55t61 20t61.5 -20t24.5 -55q0 -34 -24.5 -53.5t-61.5 -19.5q-36 0 -60.5 19.5t-24.5 53.5z" />
    <glyph glyph-name="edotaccent" unicode="&#x117;" horiz-adv-x="848" 
d="M271 172h569l-133 -172h-644v669h775l-134 -174h-433v-80h530l-119 -152h-411v-91zM355 805q0 35 24 55t61 20t61.5 -20t24.5 -55q0 -34 -24.5 -53.5t-61.5 -19.5q-36 0 -60.5 19.5t-24.5 53.5z" />
    <glyph glyph-name="Eogonek" unicode="&#x118;" horiz-adv-x="848" 
d="M746 -122v-128h-91q-54 0 -86.5 25t-32.5 62q0 42 37 88l58 75h-568v669h775l-134 -174h-433v-80h530l-119 -152h-411v-91h569l-203 -260q-7 -9 -7 -18q0 -16 22 -16h94z" />
    <glyph glyph-name="eogonek" unicode="&#x119;" horiz-adv-x="848" 
d="M746 -122v-128h-91q-54 0 -86.5 25t-32.5 62q0 42 37 88l58 75h-568v669h775l-134 -174h-433v-80h530l-119 -152h-411v-91h569l-203 -260q-7 -9 -7 -18q0 -16 22 -16h94z" />
    <glyph glyph-name="Ecaron" unicode="&#x11a;" horiz-adv-x="848" 
d="M271 172h569l-133 -172h-644v669h775l-134 -174h-433v-80h530l-119 -152h-411v-91zM367 715l-94 152h100l56 -101h9l55 101h99l-94 -152h-131z" />
    <glyph glyph-name="ecaron" unicode="&#x11b;" horiz-adv-x="848" 
d="M271 172h569l-133 -172h-644v669h775l-134 -174h-433v-80h530l-119 -152h-411v-91zM367 715l-94 152h100l56 -101h9l55 101h99l-94 -152h-131z" />
    <glyph glyph-name="Gbreve" unicode="&#x11e;" horiz-adv-x="960" 
d="M352 269l124 149h428v-418h-459q-174 0 -288.5 97.5t-114.5 243.5t113.5 237t289.5 91h479l-134 -174h-345q-84 0 -140.5 -46t-56.5 -117q0 -72 55 -116t142 -44h253v97h-346zM570 867h99q0 -30 -11.5 -63t-42 -61t-74.5 -28h-62q-44 0 -75 28t-42.5 61t-11.5 63h100
q0 -31 13.5 -61t42.5 -30h14q26 0 38 30t12 61z" />
    <glyph glyph-name="gbreve" unicode="&#x11f;" horiz-adv-x="960" 
d="M352 269l124 149h428v-418h-459q-174 0 -288.5 97.5t-114.5 243.5t113.5 237t289.5 91h479l-134 -174h-345q-84 0 -140.5 -46t-56.5 -117q0 -72 55 -116t142 -44h253v97h-346zM570 867h99q0 -30 -11.5 -63t-42 -61t-74.5 -28h-62q-44 0 -75 28t-42.5 61t-11.5 63h100
q0 -31 13.5 -61t42.5 -30h14q26 0 38 30t12 61z" />
    <glyph glyph-name="Gdotaccent" unicode="&#x120;" horiz-adv-x="960" 
d="M352 269l124 149h428v-418h-459q-174 0 -288.5 97.5t-114.5 243.5t113.5 237t289.5 91h479l-134 -174h-345q-84 0 -140.5 -46t-56.5 -117q0 -72 55 -116t142 -44h253v97h-346zM433 805q0 35 24 55t61 20t61.5 -20t24.5 -55q0 -34 -24.5 -53.5t-61.5 -19.5
q-36 0 -60.5 19.5t-24.5 53.5z" />
    <glyph glyph-name="gdotaccent" unicode="&#x121;" horiz-adv-x="960" 
d="M352 269l124 149h428v-418h-459q-174 0 -288.5 97.5t-114.5 243.5t113.5 237t289.5 91h479l-134 -174h-345q-84 0 -140.5 -46t-56.5 -117q0 -72 55 -116t142 -44h253v97h-346zM433 805q0 35 24 55t61 20t61.5 -20t24.5 -55q0 -34 -24.5 -53.5t-61.5 -19.5
q-36 0 -60.5 19.5t-24.5 53.5z" />
    <glyph glyph-name="Gcommaaccent" unicode="&#x122;" horiz-adv-x="960" 
d="M352 269l124 149h428v-418h-459q-174 0 -288.5 97.5t-114.5 243.5t113.5 237t289.5 91h479l-134 -174h-345q-84 0 -140.5 -46t-56.5 -117q0 -72 55 -116t142 -44h253v97h-346zM468 -31h155l-83 -224h-72v224z" />
    <glyph glyph-name="gcommaaccent" unicode="&#x123;" horiz-adv-x="960" 
d="M352 269l124 149h428v-418h-459q-174 0 -288.5 97.5t-114.5 243.5t113.5 237t289.5 91h479l-134 -174h-345q-84 0 -140.5 -46t-56.5 -117q0 -72 55 -116t142 -44h253v97h-346zM468 -31h155l-83 -224h-72v224z" />
    <glyph glyph-name="Hbar" unicode="&#x126;" horiz-adv-x="939" 
d="M875 669v-669h-206v258h-398v-258h-208v669h208v-73h398v73h206zM271 432h398v92h-398v-92z" />
    <glyph glyph-name="hbar" unicode="&#x127;" horiz-adv-x="939" 
d="M875 669v-669h-206v258h-398v-258h-208v669h208v-73h398v73h206zM271 432h398v92h-398v-92z" />
    <glyph glyph-name="uni012A" unicode="&#x12a;" horiz-adv-x="339" 
d="M273 669v-669h-207v669h207zM319 833v-83h-298v83h298z" />
    <glyph glyph-name="imacron" unicode="&#x12b;" horiz-adv-x="339" 
d="M273 669v-669h-207v669h207zM319 833v-83h-298v83h298z" />
    <glyph glyph-name="Ibreve" unicode="&#x12c;" horiz-adv-x="339" 
d="M273 669v-669h-207v669h207zM230 867h99q0 -30 -11.5 -63t-42 -61t-74.5 -28h-62q-44 0 -75 28t-42.5 61t-11.5 63h100q0 -31 13.5 -61t42.5 -30h14q26 0 38 30t12 61z" />
    <glyph glyph-name="ibreve" unicode="&#x12d;" horiz-adv-x="339" 
d="M273 669v-669h-207v669h207zM230 867h99q0 -30 -11.5 -63t-42 -61t-74.5 -28h-62q-44 0 -75 28t-42.5 61t-11.5 63h100q0 -31 13.5 -61t42.5 -30h14q26 0 38 30t12 61z" />
    <glyph glyph-name="Iogonek" unicode="&#x12e;" horiz-adv-x="339" 
d="M273 -122v-128h-105q-53 0 -86 25.5t-33 61.5q0 48 50 88l92 75h-125v669h207v-669l-109 -88q-11 -8 -11 -18q0 -16 22 -16h98z" />
    <glyph glyph-name="iogonek" unicode="&#x12f;" horiz-adv-x="339" 
d="M273 -122v-128h-105q-53 0 -86 25.5t-33 61.5q0 48 50 88l92 75h-125v669h207v-669l-109 -88q-11 -8 -11 -18q0 -16 22 -16h98z" />
    <glyph glyph-name="Idotaccent" unicode="&#x130;" horiz-adv-x="339" 
d="M273 669v-669h-207v669h207zM85 805q0 35 24 55t61 20t61.5 -20t24.5 -55q0 -34 -24.5 -53.5t-61.5 -19.5q-36 0 -60.5 19.5t-24.5 53.5z" />
    <glyph glyph-name="dotlessi" unicode="&#x131;" horiz-adv-x="339" 
d="M273 669v-669h-207v669h207z" />
    <glyph glyph-name="IJ" unicode="&#x132;" horiz-adv-x="1071" 
d="M273 669v-669h-207v669h207zM485 172h115q117 0 163.5 29.5t46.5 102.5v365h208v-365q0 -304 -418 -304h-250z" />
    <glyph glyph-name="ij" unicode="&#x133;" horiz-adv-x="1071" 
d="M273 669v-669h-207v669h207zM485 172h115q117 0 163.5 29.5t46.5 102.5v365h208v-365q0 -304 -418 -304h-250z" />
    <glyph glyph-name="Kcommaaccent" unicode="&#x136;" horiz-adv-x="912" 
d="M630 221l277 -221h-313l-202 176q-92 80 -124 112q3 -93 3 -96v-192h-208v669h208v-155q0 -47 -4 -117q71 65 123 109l193 163h300l-256 -192q-124 -93 -173 -123q79 -54 176 -133zM349 -31h155l-83 -224h-72v224z" />
    <glyph glyph-name="kcommaaccent" unicode="&#x137;" horiz-adv-x="912" 
d="M630 221l277 -221h-313l-202 176q-92 80 -124 112q3 -93 3 -96v-192h-208v669h208v-155q0 -47 -4 -117q71 65 123 109l193 163h300l-256 -192q-124 -93 -173 -123q79 -54 176 -133zM349 -31h155l-83 -224h-72v224z" />
    <glyph glyph-name="Lacute" unicode="&#x139;" horiz-adv-x="794" 
d="M270 172h518l-134 -172h-591v669h207v-497zM365 867v-113l-298 -39v83z" />
    <glyph glyph-name="lacute" unicode="&#x13a;" horiz-adv-x="794" 
d="M270 172h518l-134 -172h-591v669h207v-497zM365 867v-113l-298 -39v83z" />
    <glyph glyph-name="Lcommaaccent" unicode="&#x13b;" horiz-adv-x="794" 
d="M270 172h518l-134 -172h-591v669h207v-497zM272 -31h155l-83 -224h-72v224z" />
    <glyph glyph-name="lcommaaccent" unicode="&#x13c;" horiz-adv-x="794" 
d="M270 172h518l-134 -172h-591v669h207v-497zM272 -31h155l-83 -224h-72v224z" />
    <glyph glyph-name="Lcaron" unicode="&#x13d;" horiz-adv-x="794" 
d="M270 172h518l-134 -172h-591v669h207v-497zM414 669h185l-99 -268h-86v268z" />
    <glyph glyph-name="lcaron" unicode="&#x13e;" horiz-adv-x="794" 
d="M270 172h518l-134 -172h-591v669h207v-497zM414 669h185l-99 -268h-86v268z" />
    <glyph glyph-name="Lslash" unicode="&#x141;" horiz-adv-x="794" 
d="M270 172h518l-134 -172h-591v669h207v-233h327l-118 -151h-209v-113z" />
    <glyph glyph-name="lslash" unicode="&#x142;" horiz-adv-x="794" 
d="M270 172h518l-134 -172h-591v669h207v-233h327l-118 -151h-209v-113z" />
    <glyph glyph-name="Nacute" unicode="&#x143;" horiz-adv-x="914" 
d="M741 -11q-45 0 -83 36l-410 368v-393h-188v555q0 63 32.5 94t80.5 31q43 0 83 -36l410 -368v393h189v-554q0 -63 -32.5 -94.5t-81.5 -31.5zM615 867v-113l-298 -39v83z" />
    <glyph glyph-name="nacute" unicode="&#x144;" horiz-adv-x="914" 
d="M741 -11q-45 0 -83 36l-410 368v-393h-188v555q0 63 32.5 94t80.5 31q43 0 83 -36l410 -368v393h189v-554q0 -63 -32.5 -94.5t-81.5 -31.5zM615 867v-113l-298 -39v83z" />
    <glyph glyph-name="Ncommaaccent" unicode="&#x145;" horiz-adv-x="914" 
d="M741 -11q-45 0 -83 36l-410 368v-393h-188v555q0 63 32.5 94t80.5 31q43 0 83 -36l410 -368v393h189v-554q0 -63 -32.5 -94.5t-81.5 -31.5zM351 -31h155l-83 -224h-72v224z" />
    <glyph glyph-name="ncommaaccent" unicode="&#x146;" horiz-adv-x="914" 
d="M741 -11q-45 0 -83 36l-410 368v-393h-188v555q0 63 32.5 94t80.5 31q43 0 83 -36l410 -368v393h189v-554q0 -63 -32.5 -94.5t-81.5 -31.5zM351 -31h155l-83 -224h-72v224z" />
    <glyph glyph-name="Ncaron" unicode="&#x147;" horiz-adv-x="914" 
d="M741 -11q-45 0 -83 36l-410 368v-393h-188v555q0 63 32.5 94t80.5 31q43 0 83 -36l410 -368v393h189v-554q0 -63 -32.5 -94.5t-81.5 -31.5zM391 715l-94 152h100l56 -101h9l55 101h99l-94 -152h-131z" />
    <glyph glyph-name="ncaron" unicode="&#x148;" horiz-adv-x="914" 
d="M741 -11q-45 0 -83 36l-410 368v-393h-188v555q0 63 32.5 94t80.5 31q43 0 83 -36l410 -368v393h189v-554q0 -63 -32.5 -94.5t-81.5 -31.5zM391 715l-94 152h100l56 -101h9l55 101h99l-94 -152h-131z" />
    <glyph glyph-name="Eng" unicode="&#x14a;" horiz-adv-x="914" 
d="M419 -82h18q107 0 161.5 23.5t64.5 77.5l-415 374v-393h-188v555q0 63 32.5 94t80.5 31q43 0 83 -36l410 -368v393h189v-620q0 -304 -418 -304h-152z" />
    <glyph glyph-name="eng" unicode="&#x14b;" horiz-adv-x="914" 
d="M419 -82h18q107 0 161.5 23.5t64.5 77.5l-415 374v-393h-188v555q0 63 32.5 94t80.5 31q43 0 83 -36l410 -368v393h189v-620q0 -304 -418 -304h-152z" />
    <glyph glyph-name="Omacron" unicode="&#x14c;" horiz-adv-x="1062" 
d="M531 680q246 0 367.5 -84t121.5 -261q0 -178 -121.5 -262t-367.5 -84q-247 0 -368 84t-121 262t121 261.5t368 83.5zM531 163q162 0 222.5 33.5t60.5 138.5q0 104 -60 137.5t-223 33.5t-223 -33.5t-60 -137.5q0 -105 60.5 -138.5t222.5 -33.5zM679 833v-83h-298v83h298z
" />
    <glyph glyph-name="omacron" unicode="&#x14d;" horiz-adv-x="1062" 
d="M531 680q246 0 367.5 -84t121.5 -261q0 -178 -121.5 -262t-367.5 -84q-247 0 -368 84t-121 262t121 261.5t368 83.5zM531 163q162 0 222.5 33.5t60.5 138.5q0 104 -60 137.5t-223 33.5t-223 -33.5t-60 -137.5q0 -105 60.5 -138.5t222.5 -33.5zM679 833v-83h-298v83h298z
" />
    <glyph glyph-name="Ohungarumlaut" unicode="&#x150;" horiz-adv-x="1062" 
d="M531 680q246 0 367.5 -84t121.5 -261q0 -178 -121.5 -262t-367.5 -84q-247 0 -368 84t-121 262t121 261.5t368 83.5zM531 163q162 0 222.5 33.5t60.5 138.5q0 104 -60 137.5t-223 33.5t-223 -33.5t-60 -137.5q0 -105 60.5 -138.5t222.5 -33.5zM726 867l-99 -142h-76
l50 142h125zM544 867l-100 -142h-75l49 142h126z" />
    <glyph glyph-name="ohungarumlaut" unicode="&#x151;" horiz-adv-x="1062" 
d="M531 680q246 0 367.5 -84t121.5 -261q0 -178 -121.5 -262t-367.5 -84q-247 0 -368 84t-121 262t121 261.5t368 83.5zM531 163q162 0 222.5 33.5t60.5 138.5q0 104 -60 137.5t-223 33.5t-223 -33.5t-60 -137.5q0 -105 60.5 -138.5t222.5 -33.5zM726 867l-99 -142h-76
l50 142h125zM544 867l-100 -142h-75l49 142h126z" />
    <glyph glyph-name="OE" unicode="&#x152;" horiz-adv-x="1506" 
d="M928 172h570l-133 -172h-644q-74 -11 -190 -11q-247 0 -368 84t-121 262t121 261.5t368 83.5q116 0 190 -11h774l-133 -174h-434v-80h530l-118 -152h-412v-91zM531 163q130 0 190 19v305q-56 19 -190 19q-163 0 -223 -33.5t-60 -137.5q0 -105 60.5 -138.5t222.5 -33.5z
" />
    <glyph glyph-name="oe" unicode="&#x153;" horiz-adv-x="1506" 
d="M928 172h570l-133 -172h-644q-74 -11 -190 -11q-247 0 -368 84t-121 262t121 261.5t368 83.5q116 0 190 -11h774l-133 -174h-434v-80h530l-118 -152h-412v-91zM531 163q130 0 190 19v305q-56 19 -190 19q-163 0 -223 -33.5t-60 -137.5q0 -105 60.5 -138.5t222.5 -33.5z
" />
    <glyph glyph-name="Racute" unicode="&#x154;" horiz-adv-x="1023" 
d="M889 130l123 -130h-277l-149 177h-318v-177h-207v342h582q49 0 81.5 20.5t32.5 54.5q0 78 -114 78h-582l135 174h430q49 0 94.5 -6.5t92 -23t80.5 -42.5t55.5 -69t21.5 -98q0 -79 -47 -137.5t-128 -74.5q28 -21 94 -88zM661 867v-113l-298 -39v83z" />
    <glyph glyph-name="racute" unicode="&#x155;" horiz-adv-x="1023" 
d="M889 130l123 -130h-277l-149 177h-318v-177h-207v342h582q49 0 81.5 20.5t32.5 54.5q0 78 -114 78h-582l135 174h430q49 0 94.5 -6.5t92 -23t80.5 -42.5t55.5 -69t21.5 -98q0 -79 -47 -137.5t-128 -74.5q28 -21 94 -88zM661 867v-113l-298 -39v83z" />
    <glyph glyph-name="Rcommaaccent" unicode="&#x156;" horiz-adv-x="1023" 
d="M889 130l123 -130h-277l-149 177h-318v-177h-207v342h582q49 0 81.5 20.5t32.5 54.5q0 78 -114 78h-582l135 174h430q49 0 94.5 -6.5t92 -23t80.5 -42.5t55.5 -69t21.5 -98q0 -79 -47 -137.5t-128 -74.5q28 -21 94 -88zM415 -31h155l-83 -224h-72v224z" />
    <glyph glyph-name="rcommaaccent" unicode="&#x157;" horiz-adv-x="1023" 
d="M889 130l123 -130h-277l-149 177h-318v-177h-207v342h582q49 0 81.5 20.5t32.5 54.5q0 78 -114 78h-582l135 174h430q49 0 94.5 -6.5t92 -23t80.5 -42.5t55.5 -69t21.5 -98q0 -79 -47 -137.5t-128 -74.5q28 -21 94 -88zM415 -31h155l-83 -224h-72v224z" />
    <glyph glyph-name="Rcaron" unicode="&#x158;" horiz-adv-x="1023" 
d="M889 130l123 -130h-277l-149 177h-318v-177h-207v342h582q49 0 81.5 20.5t32.5 54.5q0 78 -114 78h-582l135 174h430q49 0 94.5 -6.5t92 -23t80.5 -42.5t55.5 -69t21.5 -98q0 -79 -47 -137.5t-128 -74.5q28 -21 94 -88zM417 715l-94 152h100l56 -101h9l55 101h99
l-94 -152h-131z" />
    <glyph glyph-name="rcaron" unicode="&#x159;" horiz-adv-x="1023" 
d="M889 130l123 -130h-277l-149 177h-318v-177h-207v342h582q49 0 81.5 20.5t32.5 54.5q0 78 -114 78h-582l135 174h430q49 0 94.5 -6.5t92 -23t80.5 -42.5t55.5 -69t21.5 -98q0 -79 -47 -137.5t-128 -74.5q28 -21 94 -88zM417 715l-94 152h100l56 -101h9l55 101h99
l-94 -152h-131z" />
    <glyph glyph-name="Sacute" unicode="&#x15a;" horiz-adv-x="963" 
d="M319 402h364q251 0 251 -183q0 -219 -287 -219h-623l133 172h506q37 0 54 11.5t17 37.5q0 48 -71 48h-364q-125 0 -188 51.5t-63 140.5q0 99 70 153.5t217 54.5h581l-133 -174h-464q-37 0 -54 -10.5t-17 -35.5q0 -47 71 -47zM649 867v-113l-298 -39v83z" />
    <glyph glyph-name="sacute" unicode="&#x15b;" horiz-adv-x="963" 
d="M319 402h364q251 0 251 -183q0 -219 -287 -219h-623l133 172h506q37 0 54 11.5t17 37.5q0 48 -71 48h-364q-125 0 -188 51.5t-63 140.5q0 99 70 153.5t217 54.5h581l-133 -174h-464q-37 0 -54 -10.5t-17 -35.5q0 -47 71 -47zM649 867v-113l-298 -39v83z" />
    <glyph glyph-name="Scedilla" unicode="&#x15e;" horiz-adv-x="963" 
d="M319 402h364q251 0 251 -183q0 -219 -287 -219h-623l133 172h506q37 0 54 11.5t17 37.5q0 48 -71 48h-364q-125 0 -188 51.5t-63 140.5q0 99 70 153.5t217 54.5h581l-133 -174h-464q-37 0 -54 -10.5t-17 -35.5q0 -47 71 -47zM404 -31h154l-82 -224h-72v224z" />
    <glyph glyph-name="scedilla" unicode="&#x15f;" horiz-adv-x="963" 
d="M319 402h364q251 0 251 -183q0 -219 -287 -219h-623l133 172h506q37 0 54 11.5t17 37.5q0 48 -71 48h-364q-125 0 -188 51.5t-63 140.5q0 99 70 153.5t217 54.5h581l-133 -174h-464q-37 0 -54 -10.5t-17 -35.5q0 -47 71 -47zM404 -31h154l-82 -224h-72v224z" />
    <glyph glyph-name="Scaron" unicode="&#x160;" horiz-adv-x="963" 
d="M319 402h364q251 0 251 -183q0 -219 -287 -219h-623l133 172h506q37 0 54 11.5t17 37.5q0 48 -71 48h-364q-125 0 -188 51.5t-63 140.5q0 99 70 153.5t217 54.5h581l-133 -174h-464q-37 0 -54 -10.5t-17 -35.5q0 -47 71 -47zM420 715l-94 152h100l56 -101h9l55 101h99
l-94 -152h-131z" />
    <glyph glyph-name="scaron" unicode="&#x161;" horiz-adv-x="963" 
d="M319 402h364q251 0 251 -183q0 -219 -287 -219h-623l133 172h506q37 0 54 11.5t17 37.5q0 48 -71 48h-364q-125 0 -188 51.5t-63 140.5q0 99 70 153.5t217 54.5h581l-133 -174h-464q-37 0 -54 -10.5t-17 -35.5q0 -47 71 -47zM420 715l-94 152h100l56 -101h9l55 101h99
l-94 -152h-131z" />
    <glyph glyph-name="Tcaron" unicode="&#x164;" horiz-adv-x="894" 
d="M134 669h760l-134 -174h-239v-495h-207v495h-314zM353 715l-94 152h100l56 -101h9l55 101h99l-94 -152h-131z" />
    <glyph glyph-name="tcaron" unicode="&#x165;" horiz-adv-x="894" 
d="M134 669h760l-134 -174h-239v-495h-207v495h-314zM353 715l-94 152h100l56 -101h9l55 101h99l-94 -152h-131z" />
    <glyph glyph-name="Tbar" unicode="&#x166;" horiz-adv-x="894" 
d="M256 403h58v92h-314l134 174h760l-134 -174h-239v-92h167l-101 -129h-66v-274h-207v274h-160z" />
    <glyph glyph-name="tbar" unicode="&#x167;" horiz-adv-x="894" 
d="M256 403h58v92h-314l134 174h760l-134 -174h-239v-92h167l-101 -129h-66v-274h-207v274h-160z" />
    <glyph glyph-name="Utilde" unicode="&#x168;" horiz-adv-x="986" 
d="M932 669v-377q0 -303 -417 -303q-239 0 -350 75t-111 228v377h206v-377q0 -52 19.5 -78.5t74 -39.5t161.5 -13q117 0 163 29.5t46 101.5v377h208zM565 732q-25 0 -72 20.5t-73 20.5q-46 0 -77 -36v83q27 30 77 30q26 0 72.5 -21t72.5 -21q45 0 76 36v-82q-26 -30 -76 -30
z" />
    <glyph glyph-name="utilde" unicode="&#x169;" horiz-adv-x="986" 
d="M932 669v-377q0 -303 -417 -303q-239 0 -350 75t-111 228v377h206v-377q0 -52 19.5 -78.5t74 -39.5t161.5 -13q117 0 163 29.5t46 101.5v377h208zM565 732q-25 0 -72 20.5t-73 20.5q-46 0 -77 -36v83q27 30 77 30q26 0 72.5 -21t72.5 -21q45 0 76 36v-82q-26 -30 -76 -30
z" />
    <glyph glyph-name="Umacron" unicode="&#x16a;" horiz-adv-x="986" 
d="M932 669v-377q0 -303 -417 -303q-239 0 -350 75t-111 228v377h206v-377q0 -52 19.5 -78.5t74 -39.5t161.5 -13q117 0 163 29.5t46 101.5v377h208zM641 833v-83h-298v83h298z" />
    <glyph glyph-name="umacron" unicode="&#x16b;" horiz-adv-x="986" 
d="M932 669v-377q0 -303 -417 -303q-239 0 -350 75t-111 228v377h206v-377q0 -52 19.5 -78.5t74 -39.5t161.5 -13q117 0 163 29.5t46 101.5v377h208zM641 833v-83h-298v83h298z" />
    <glyph glyph-name="Ubreve" unicode="&#x16c;" horiz-adv-x="986" 
d="M932 669v-377q0 -303 -417 -303q-239 0 -350 75t-111 228v377h206v-377q0 -52 19.5 -78.5t74 -39.5t161.5 -13q117 0 163 29.5t46 101.5v377h208zM553 867h99q0 -30 -11.5 -63t-42 -61t-74.5 -28h-62q-44 0 -75 28t-42.5 61t-11.5 63h100q0 -31 13.5 -61t42.5 -30h14
q26 0 38 30t12 61z" />
    <glyph glyph-name="ubreve" unicode="&#x16d;" horiz-adv-x="986" 
d="M932 669v-377q0 -303 -417 -303q-239 0 -350 75t-111 228v377h206v-377q0 -52 19.5 -78.5t74 -39.5t161.5 -13q117 0 163 29.5t46 101.5v377h208zM553 867h99q0 -30 -11.5 -63t-42 -61t-74.5 -28h-62q-44 0 -75 28t-42.5 61t-11.5 63h100q0 -31 13.5 -61t42.5 -30h14
q26 0 38 30t12 61z" />
    <glyph glyph-name="Uring" unicode="&#x16e;" horiz-adv-x="986" 
d="M932 669v-377q0 -303 -417 -303q-239 0 -350 75t-111 228v377h206v-377q0 -52 19.5 -78.5t74 -39.5t161.5 -13q117 0 163 29.5t46 101.5v377h208zM539 873h-94q-19 0 -19 -18v-51q0 -18 19 -18h94q20 0 20 18v51q0 18 -20 18zM637 861v-63q0 -83 -104 -83h-82
q-103 0 -103 83v63q0 84 103 84h82q104 0 104 -84z" />
    <glyph glyph-name="uring" unicode="&#x16f;" horiz-adv-x="986" 
d="M932 669v-377q0 -303 -417 -303q-239 0 -350 75t-111 228v377h206v-377q0 -52 19.5 -78.5t74 -39.5t161.5 -13q117 0 163 29.5t46 101.5v377h208zM539 873h-94q-19 0 -19 -18v-51q0 -18 19 -18h94q20 0 20 18v51q0 18 -20 18zM637 861v-63q0 -83 -104 -83h-82
q-103 0 -103 83v63q0 84 103 84h82q104 0 104 -84z" />
    <glyph glyph-name="Uhungarumlaut" unicode="&#x170;" horiz-adv-x="986" 
d="M932 669v-377q0 -303 -417 -303q-239 0 -350 75t-111 228v377h206v-377q0 -52 19.5 -78.5t74 -39.5t161.5 -13q117 0 163 29.5t46 101.5v377h208zM707 867l-99 -142h-76l50 142h125zM525 867l-100 -142h-75l49 142h126z" />
    <glyph glyph-name="uhungarumlaut" unicode="&#x171;" horiz-adv-x="986" 
d="M932 669v-377q0 -303 -417 -303q-239 0 -350 75t-111 228v377h206v-377q0 -52 19.5 -78.5t74 -39.5t161.5 -13q117 0 163 29.5t46 101.5v377h208zM707 867l-99 -142h-76l50 142h125zM525 867l-100 -142h-75l49 142h126z" />
    <glyph glyph-name="Uogonek" unicode="&#x172;" horiz-adv-x="986" 
d="M657 -122v-128h-104q-54 0 -87 25.5t-33 61.5q0 47 51 88l79 66q-32 -2 -48 -2q-239 0 -350 75t-111 228v377h206v-377q0 -52 19.5 -78.5t74 -39.5t161.5 -13q117 0 163 29.5t46 101.5v377h208v-377q0 -247 -276 -292l-108 -88q-10 -8 -10 -18q0 -16 21 -16h98z" />
    <glyph glyph-name="uogonek" unicode="&#x173;" horiz-adv-x="986" 
d="M657 -122v-128h-104q-54 0 -87 25.5t-33 61.5q0 47 51 88l79 66q-32 -2 -48 -2q-239 0 -350 75t-111 228v377h206v-377q0 -52 19.5 -78.5t74 -39.5t161.5 -13q117 0 163 29.5t46 101.5v377h208v-377q0 -247 -276 -292l-108 -88q-10 -8 -10 -18q0 -16 21 -16h98z" />
    <glyph glyph-name="Wcircumflex" unicode="&#x174;" horiz-adv-x="1260" 
d="M841 60l-107 189q-78 139 -108 201q-23 -53 -106 -200l-107 -190q-40 -71 -114 -71q-41 0 -72 23.5t-44 68.5l-170 588h207l63 -233q32 -115 45 -184q29 63 94 185l90 168q24 46 50.5 60.5t67.5 14.5q42 0 69 -14.5t51 -60.5l89 -169q58 -106 94 -184q12 59 46 184
l63 233h202l-173 -588q-13 -45 -44 -68.5t-72 -23.5q-74 0 -114 71zM696 867l93 -152h-99l-56 101h-9l-55 -101h-100l95 152h131z" />
    <glyph glyph-name="wcircumflex" unicode="&#x175;" horiz-adv-x="1260" 
d="M841 60l-107 189q-78 139 -108 201q-23 -53 -106 -200l-107 -190q-40 -71 -114 -71q-41 0 -72 23.5t-44 68.5l-170 588h207l63 -233q32 -115 45 -184q29 63 94 185l90 168q24 46 50.5 60.5t67.5 14.5q42 0 69 -14.5t51 -60.5l89 -169q58 -106 94 -184q12 59 46 184
l63 233h202l-173 -588q-13 -45 -44 -68.5t-72 -23.5q-74 0 -114 71zM696 867l93 -152h-99l-56 101h-9l-55 -101h-100l95 152h131z" />
    <glyph glyph-name="Ycircumflex" unicode="&#x176;" horiz-adv-x="1028" 
d="M761 669h260l-397 -448v-221h-208v222l-408 447h266l160 -186q87 -100 91 -105q18 26 84 106zM595 867l93 -152h-99l-56 101h-9l-55 -101h-100l95 152h131z" />
    <glyph glyph-name="ycircumflex" unicode="&#x177;" horiz-adv-x="1028" 
d="M761 669h260l-397 -448v-221h-208v222l-408 447h266l160 -186q87 -100 91 -105q18 26 84 106zM595 867l93 -152h-99l-56 101h-9l-55 -101h-100l95 152h131z" />
    <glyph glyph-name="Ydieresis" unicode="&#x178;" horiz-adv-x="1028" 
d="M761 669h260l-397 -448v-221h-208v222l-408 447h266l160 -186q87 -100 91 -105q18 26 84 106zM335 805q0 35 24 55t61 20t61.5 -20t24.5 -55q0 -34 -24.5 -53.5t-61.5 -19.5q-36 0 -60.5 19.5t-24.5 53.5zM543 805q0 35 24.5 55t60.5 20q37 0 61.5 -20t24.5 -55
q0 -34 -24.5 -53.5t-61.5 -19.5q-36 0 -60.5 20t-24.5 53z" />
    <glyph glyph-name="Zacute" unicode="&#x179;" horiz-adv-x="899" 
d="M891 172l-125 -172h-634q-41 0 -68.5 22.5t-27.5 61.5q0 48 45 83l244 192q92 74 184 140q-48 -4 -230 -4h-268l132 174h617q41 0 68.5 -22.5t27.5 -61.5q0 -48 -45 -82l-247 -196q-132 -104 -182 -139q66 4 266 4h243zM598 867v-113l-298 -39v83z" />
    <glyph glyph-name="zacute" unicode="&#x17a;" horiz-adv-x="899" 
d="M891 172l-125 -172h-634q-41 0 -68.5 22.5t-27.5 61.5q0 48 45 83l244 192q92 74 184 140q-48 -4 -230 -4h-268l132 174h617q41 0 68.5 -22.5t27.5 -61.5q0 -48 -45 -82l-247 -196q-132 -104 -182 -139q66 4 266 4h243zM598 867v-113l-298 -39v83z" />
    <glyph glyph-name="Zdotaccent" unicode="&#x17b;" horiz-adv-x="899" 
d="M891 172l-125 -172h-634q-41 0 -68.5 22.5t-27.5 61.5q0 48 45 83l244 192q92 74 184 140q-48 -4 -230 -4h-268l132 174h617q41 0 68.5 -22.5t27.5 -61.5q0 -48 -45 -82l-247 -196q-132 -104 -182 -139q66 4 266 4h243zM385 805q0 35 24 55t61 20t61.5 -20t24.5 -55
q0 -34 -24.5 -53.5t-61.5 -19.5q-36 0 -60.5 19.5t-24.5 53.5z" />
    <glyph glyph-name="zdotaccent" unicode="&#x17c;" horiz-adv-x="899" 
d="M891 172l-125 -172h-634q-41 0 -68.5 22.5t-27.5 61.5q0 48 45 83l244 192q92 74 184 140q-48 -4 -230 -4h-268l132 174h617q41 0 68.5 -22.5t27.5 -61.5q0 -48 -45 -82l-247 -196q-132 -104 -182 -139q66 4 266 4h243zM385 805q0 35 24 55t61 20t61.5 -20t24.5 -55
q0 -34 -24.5 -53.5t-61.5 -19.5q-36 0 -60.5 19.5t-24.5 53.5z" />
    <glyph glyph-name="Zcaron" unicode="&#x17d;" horiz-adv-x="899" 
d="M891 172l-125 -172h-634q-41 0 -68.5 22.5t-27.5 61.5q0 48 45 83l244 192q92 74 184 140q-48 -4 -230 -4h-268l132 174h617q41 0 68.5 -22.5t27.5 -61.5q0 -48 -45 -82l-247 -196q-132 -104 -182 -139q66 4 266 4h243zM393 715l-94 152h100l56 -101h9l55 101h99
l-94 -152h-131z" />
    <glyph glyph-name="zcaron" unicode="&#x17e;" horiz-adv-x="899" 
d="M891 172l-125 -172h-634q-41 0 -68.5 22.5t-27.5 61.5q0 48 45 83l244 192q92 74 184 140q-48 -4 -230 -4h-268l132 174h617q41 0 68.5 -22.5t27.5 -61.5q0 -48 -45 -82l-247 -196q-132 -104 -182 -139q66 4 266 4h243zM393 715l-94 152h100l56 -101h9l55 101h99
l-94 -152h-131z" />
    <glyph glyph-name="Scommaaccent" unicode="&#x218;" horiz-adv-x="963" 
d="M319 402h364q251 0 251 -183q0 -219 -287 -219h-623l133 172h506q37 0 54 11.5t17 37.5q0 48 -71 48h-364q-125 0 -188 51.5t-63 140.5q0 99 70 153.5t217 54.5h581l-133 -174h-464q-37 0 -54 -10.5t-17 -35.5q0 -47 71 -47zM404 -31h155l-83 -224h-72v224z" />
    <glyph glyph-name="scommaaccent" unicode="&#x219;" horiz-adv-x="963" 
d="M319 402h364q251 0 251 -183q0 -219 -287 -219h-623l133 172h506q37 0 54 11.5t17 37.5q0 48 -71 48h-364q-125 0 -188 51.5t-63 140.5q0 99 70 153.5t217 54.5h581l-133 -174h-464q-37 0 -54 -10.5t-17 -35.5q0 -47 71 -47zM404 -31h155l-83 -224h-72v224z" />
    <glyph glyph-name="uni021A" unicode="&#x21a;" horiz-adv-x="894" 
d="M134 669h760l-134 -174h-239v-495h-207v495h-314zM341 -31h155l-83 -224h-72v224z" />
    <glyph glyph-name="uni021B" unicode="&#x21b;" horiz-adv-x="894" 
d="M134 669h760l-134 -174h-239v-495h-207v495h-314zM341 -31h155l-83 -224h-72v224z" />
    <glyph glyph-name="circumflex" unicode="&#x2c6;" horiz-adv-x="414" 
d="M273 867l93 -152h-99l-56 101h-9l-55 -101h-100l95 152h131z" />
    <glyph glyph-name="caron" unicode="&#x2c7;" horiz-adv-x="414" 
d="M141 715l-94 152h100l56 -101h9l55 101h99l-94 -152h-131z" />
    <glyph glyph-name="breve" unicode="&#x2d8;" horiz-adv-x="414" 
d="M267 867h99q0 -30 -11.5 -63t-42 -61t-74.5 -28h-62q-44 0 -75 28t-42.5 61t-11.5 63h100q0 -31 13.5 -61t42.5 -30h14q26 0 38 30t12 61z" />
    <glyph glyph-name="dotaccent" unicode="&#x2d9;" horiz-adv-x="221" 
d="M26 805q0 35 24 55t61 20t61.5 -20t24.5 -55q0 -34 -24.5 -53.5t-61.5 -19.5q-36 0 -60.5 19.5t-24.5 53.5z" />
    <glyph glyph-name="ring" unicode="&#x2da;" horiz-adv-x="383" 
d="M238 873h-94q-19 0 -19 -18v-51q0 -18 19 -18h94q20 0 20 18v51q0 18 -20 18zM336 861v-63q0 -83 -104 -83h-82q-103 0 -103 83v63q0 84 103 84h82q104 0 104 -84z" />
    <glyph glyph-name="ogonek" unicode="&#x2db;" horiz-adv-x="309" 
d="M262 -122v-128h-104q-54 0 -86.5 25t-32.5 62q0 48 50 88l92 75h81l-109 -88q-10 -9 -10 -18q0 -16 22 -16h97z" />
    <glyph glyph-name="tilde" unicode="&#x2dc;" horiz-adv-x="393" 
d="M269 732q-25 0 -72 20.5t-73 20.5q-46 0 -77 -36v83q27 30 77 30q26 0 72.5 -21t72.5 -21q45 0 76 36v-82q-26 -30 -76 -30z" />
    <glyph glyph-name="hungarumlaut" unicode="&#x2dd;" horiz-adv-x="452" 
d="M433 867l-99 -142h-76l50 142h125zM251 867l-100 -142h-75l49 142h126z" />
    <glyph glyph-name="commaaccent" unicode="&#x326;" horiz-adv-x="259" 
d="M65 -31h155l-83 -224h-72v224z" />
    <glyph glyph-name="Wgrave" unicode="&#x1e80;" horiz-adv-x="1260" 
d="M841 60l-107 189q-78 139 -108 201q-23 -53 -106 -200l-107 -190q-40 -71 -114 -71q-41 0 -72 23.5t-44 68.5l-170 588h207l63 -233q32 -115 45 -184q29 63 94 185l90 168q24 46 50.5 60.5t67.5 14.5q42 0 69 -14.5t51 -60.5l89 -169q58 -106 94 -184q12 59 46 184
l63 233h202l-173 -588q-13 -45 -44 -68.5t-72 -23.5q-74 0 -114 71zM750 798v-83l-298 39v113z" />
    <glyph glyph-name="wgrave" unicode="&#x1e81;" horiz-adv-x="1260" 
d="M841 60l-107 189q-78 139 -108 201q-23 -53 -106 -200l-107 -190q-40 -71 -114 -71q-41 0 -72 23.5t-44 68.5l-170 588h207l63 -233q32 -115 45 -184q29 63 94 185l90 168q24 46 50.5 60.5t67.5 14.5q42 0 69 -14.5t51 -60.5l89 -169q58 -106 94 -184q12 59 46 184
l63 233h202l-173 -588q-13 -45 -44 -68.5t-72 -23.5q-74 0 -114 71zM750 798v-83l-298 39v113z" />
    <glyph glyph-name="Wacute" unicode="&#x1e82;" horiz-adv-x="1260" 
d="M841 60l-107 189q-78 139 -108 201q-23 -53 -106 -200l-107 -190q-40 -71 -114 -71q-41 0 -72 23.5t-44 68.5l-170 588h207l63 -233q32 -115 45 -184q29 63 94 185l90 168q24 46 50.5 60.5t67.5 14.5q42 0 69 -14.5t51 -60.5l89 -169q58 -106 94 -184q12 59 46 184
l63 233h202l-173 -588q-13 -45 -44 -68.5t-72 -23.5q-74 0 -114 71zM807 867v-113l-298 -39v83z" />
    <glyph glyph-name="wacute" unicode="&#x1e83;" horiz-adv-x="1260" 
d="M841 60l-107 189q-78 139 -108 201q-23 -53 -106 -200l-107 -190q-40 -71 -114 -71q-41 0 -72 23.5t-44 68.5l-170 588h207l63 -233q32 -115 45 -184q29 63 94 185l90 168q24 46 50.5 60.5t67.5 14.5q42 0 69 -14.5t51 -60.5l89 -169q58 -106 94 -184q12 59 46 184
l63 233h202l-173 -588q-13 -45 -44 -68.5t-72 -23.5q-74 0 -114 71zM807 867v-113l-298 -39v83z" />
    <glyph glyph-name="Wdieresis" unicode="&#x1e84;" horiz-adv-x="1260" 
d="M841 60l-107 189q-78 139 -108 201q-23 -53 -106 -200l-107 -190q-40 -71 -114 -71q-41 0 -72 23.5t-44 68.5l-170 588h207l63 -233q32 -115 45 -184q29 63 94 185l90 168q24 46 50.5 60.5t67.5 14.5q42 0 69 -14.5t51 -60.5l89 -169q58 -106 94 -184q12 59 46 184
l63 233h202l-173 -588q-13 -45 -44 -68.5t-72 -23.5q-74 0 -114 71zM441 805q0 35 24 55t61 20t61.5 -20t24.5 -55q0 -34 -24.5 -53.5t-61.5 -19.5q-36 0 -60.5 19.5t-24.5 53.5zM649 805q0 35 24.5 55t60.5 20q37 0 61.5 -20t24.5 -55q0 -34 -24.5 -53.5t-61.5 -19.5
q-36 0 -60.5 20t-24.5 53z" />
    <glyph glyph-name="wdieresis" unicode="&#x1e85;" horiz-adv-x="1260" 
d="M841 60l-107 189q-78 139 -108 201q-23 -53 -106 -200l-107 -190q-40 -71 -114 -71q-41 0 -72 23.5t-44 68.5l-170 588h207l63 -233q32 -115 45 -184q29 63 94 185l90 168q24 46 50.5 60.5t67.5 14.5q42 0 69 -14.5t51 -60.5l89 -169q58 -106 94 -184q12 59 46 184
l63 233h202l-173 -588q-13 -45 -44 -68.5t-72 -23.5q-74 0 -114 71zM441 805q0 35 24 55t61 20t61.5 -20t24.5 -55q0 -34 -24.5 -53.5t-61.5 -19.5q-36 0 -60.5 19.5t-24.5 53.5zM649 805q0 35 24.5 55t60.5 20q37 0 61.5 -20t24.5 -55q0 -34 -24.5 -53.5t-61.5 -19.5
q-36 0 -60.5 20t-24.5 53z" />
    <glyph glyph-name="Ygrave" unicode="&#x1ef2;" horiz-adv-x="1028" 
d="M761 669h260l-397 -448v-221h-208v222l-408 447h266l160 -186q87 -100 91 -105q18 26 84 106zM634 798v-83l-298 39v113z" />
    <glyph glyph-name="ygrave" unicode="&#x1ef3;" horiz-adv-x="1028" 
d="M761 669h260l-397 -448v-221h-208v222l-408 447h266l160 -186q87 -100 91 -105q18 26 84 106zM634 798v-83l-298 39v113z" />
    <glyph glyph-name="endash" unicode="&#x2013;" horiz-adv-x="625" 
d="M116 403h495l-101 -129h-495z" />
    <glyph glyph-name="emdash" unicode="&#x2014;" horiz-adv-x="1003" 
d="M116 403h874l-101 -129h-874z" />
    <glyph glyph-name="quoteleft" unicode="&#x2018;" horiz-adv-x="219" 
d="M202 401h-185l98 268h87v-268z" />
    <glyph glyph-name="quoteright" unicode="&#x2019;" horiz-adv-x="219" 
d="M17 669h185l-99 -268h-86v268z" />
    <glyph glyph-name="quotesinglbase" unicode="&#x201a;" horiz-adv-x="219" 
d="M17 172h185l-99 -268h-86v268z" />
    <glyph glyph-name="uni201B" unicode="&#x201b;" horiz-adv-x="219" 
d="M17 669h185v-268h-87z" />
    <glyph glyph-name="quotedblleft" unicode="&#x201c;" horiz-adv-x="446" 
d="M429 401h-185l99 268h86v-268zM202 401h-185l98 268h87v-268z" />
    <glyph glyph-name="quotedblright" unicode="&#x201d;" horiz-adv-x="446" 
d="M244 669h185l-99 -268h-86v268zM17 669h185l-99 -268h-86v268z" />
    <glyph glyph-name="quotedblbase" unicode="&#x201e;" horiz-adv-x="446" 
d="M244 172h185l-99 -268h-86v268zM17 172h185l-99 -268h-86v268z" />
    <glyph glyph-name="uni201F" unicode="&#x201f;" horiz-adv-x="446" 
d="M17 669h185v-268h-87zM244 669h185v-268h-86z" />
    <glyph glyph-name="dagger" unicode="&#x2020;" horiz-adv-x="429" 
d="M223 669l32 -181l124 -38l-123 -39l-32 -411h-26l-30 411l-125 39l125 38l31 181h24z" />
    <glyph glyph-name="daggerdbl" unicode="&#x2021;" horiz-adv-x="436" 
d="M225 669l30 -153l124 -31v-20l-123 -32v-198l123 -31v-20l-124 -31l-30 -154h-23l-32 154l-122 31v20l121 31v199l-122 36l2 21l121 26l32 152h23z" />
    <glyph glyph-name="bullet" unicode="&#x2022;" horiz-adv-x="458" 
d="M59 335q0 71 49.5 120.5t120.5 49.5t120.5 -49.5t49.5 -120.5t-49.5 -120.5t-120.5 -49.5t-120.5 49.5t-49.5 120.5z" />
    <glyph glyph-name="ellipsis" unicode="&#x2026;" horiz-adv-x="927" 
d="M42 85q0 45 32 71.5t80 26.5q49 0 81 -26.5t32 -71.5q0 -44 -32 -70t-81 -26q-48 0 -80 26t-32 70zM351 85q0 45 32 71.5t80 26.5q49 0 81 -26.5t32 -71.5q0 -44 -32 -70t-81 -26q-48 0 -80 26t-32 70zM660 85q0 45 32 71.5t80 26.5q49 0 81 -26.5t32 -71.5
q0 -44 -32 -70t-81 -26q-48 0 -80 26t-32 70z" />
    <glyph glyph-name="perthousand" unicode="&#x2030;" horiz-adv-x="1359" 
d="M256 692q108 0 160.5 -42t52.5 -130q0 -89 -52.5 -131t-160.5 -42t-161 42t-53 131q0 88 53 130t161 42zM256 434q63 0 87 17t24 69t-23.5 68.5t-87.5 16.5t-88 -16.5t-24 -68.5t24 -69t88 -17zM680 706h84l-533 -744h-91zM658 330q108 0 160.5 -42t52.5 -130
q0 -89 -52.5 -131t-160.5 -42t-161 42t-53 131q0 88 53 130t161 42zM658 72q63 0 87 17t24 69t-23.5 68.5t-87.5 16.5t-88 -16.5t-24 -68.5t24 -69t88 -17zM1105 330q108 0 160.5 -42t52.5 -130q0 -89 -52.5 -131t-160.5 -42t-161 42t-53 131q0 88 53 130t161 42zM1105 72
q63 0 87 17t24 69t-23.5 68.5t-87.5 16.5t-88 -16.5t-24 -68.5t24 -69t88 -17z" />
    <glyph glyph-name="uni2032" unicode="&#x2032;" horiz-adv-x="222" 
d="M67 669h160l-127 -268h-93z" />
    <glyph glyph-name="uni2033" unicode="&#x2033;" horiz-adv-x="444" 
d="M67 669h160l-127 -268h-93zM289 669h160l-127 -268h-93z" />
    <glyph glyph-name="guilsinglleft" unicode="&#x2039;" horiz-adv-x="245" 
d="M203 397l-113 -72l113 -74v-93l-174 118v91l174 125v-95z" />
    <glyph glyph-name="guilsinglright" unicode="&#x203a;" horiz-adv-x="245" 
d="M160 325l-114 72v95l175 -125v-91l-175 -118v93z" />
    <glyph glyph-name="fraction" unicode="&#x2044;" horiz-adv-x="283" 
d="M375 706h84l-533 -744h-91z" />
    <glyph glyph-name="zerosuperior" unicode="&#x2070;" horiz-adv-x="497" 
d="M249 692q108 0 160.5 -42t52.5 -130q0 -89 -52.5 -131t-160.5 -42t-161 42t-53 131q0 88 53 130t161 42zM249 434q63 0 87 17t24 69t-23.5 68.5t-87.5 16.5t-88 -16.5t-24 -68.5t24 -69t88 -17z" />
    <glyph glyph-name="foursuperior" unicode="&#x2074;" horiz-adv-x="508" 
d="M296 392h-217q-23 0 -37 13.5t-14 32.5q0 22 22 40l241 196q22 18 48 18q24 0 40.5 -15.5t16.5 -46.5v-155h95l-60 -83h-35v-39h-100v39zM296 475v49q0 21 2 43q-9 -9 -36 -31l-37 -30q-3 -2 -45 -33q28 2 57 2h59z" />
    <glyph glyph-name="fivesuperior" unicode="&#x2075;" horiz-adv-x="478" 
d="M52 687h379l-67 -87h-209v-47h162q126 0 126 -92q0 -108 -144 -108h-264l66 86h207q35 0 35 23q0 25 -35 25h-256v200z" />
    <glyph glyph-name="sixsuperior" unicode="&#x2076;" horiz-adv-x="514" 
d="M232 600q-66 0 -90 -47h211q59 0 92.5 -24t33.5 -69q0 -113 -209 -113q-118 0 -176.5 43t-58.5 133q0 72 57 118t145 46h215l-67 -87h-153zM345 487h-203q8 -32 39 -42.5t94 -10.5q62 0 84 7t22 23q0 23 -36 23z" />
    <glyph glyph-name="sevensuperior" unicode="&#x2077;" horiz-adv-x="450" 
d="M415 603l-214 -250h-131l165 184q44 51 61 65q-19 -2 -94 -2h-182l66 87h289q27 0 42 -12.5t15 -32.5q0 -19 -17 -39z" />
    <glyph glyph-name="eightsuperior" unicode="&#x2078;" horiz-adv-x="504" 
d="M334 353h-164q-135 0 -135 97q0 29 14.5 48.5t37.5 26.5q-45 14 -45 69q0 45 35 69t96 24h158q62 0 97 -24t35 -69q0 -27 -13.5 -45t-32.5 -24q52 -16 52 -75q0 -97 -135 -97zM334 484h-164q-32 0 -32 -23q0 -22 32 -22h164q32 0 32 22q0 23 -32 23zM336 600h-168
q-28 0 -28 -21q0 -23 28 -23h168q28 0 28 23q0 21 -28 21z" />
    <glyph glyph-name="ninesuperior" unicode="&#x2079;" horiz-adv-x="514" 
d="M132 439h150q63 0 90 55q-50 -8 -212 -8q-58 0 -91.5 24t-33.5 69q0 113 209 113q235 0 235 -165q0 -80 -56.5 -127t-145.5 -47h-211zM168 552q155 0 203 5q-7 30 -37 39t-96 9q-62 0 -84 -7t-22 -23q0 -23 36 -23z" />
    <glyph glyph-name="zeroinferior" unicode="&#x2080;" horiz-adv-x="497" 
d="M249 330q108 0 160.5 -42t52.5 -130q0 -89 -52.5 -131t-160.5 -42t-161 42t-53 131q0 88 53 130t161 42zM249 72q63 0 87 17t24 69t-23.5 68.5t-87.5 16.5t-88 -16.5t-24 -68.5t24 -69t88 -17z" />
    <glyph glyph-name="oneinferior" unicode="&#x2081;" horiz-adv-x="251" 
d="M20 238l62 87h123v-334h-104v247h-81z" />
    <glyph glyph-name="twoinferior" unicode="&#x2082;" horiz-adv-x="496" 
d="M52 238l66 87h196q144 0 144 -104q0 -44 -31.5 -70t-94.5 -26h-159q-35 0 -35 -25v-23h323l-67 -86h-356v108q0 92 126 92h159q35 0 35 24q0 23 -35 23h-271z" />
    <glyph glyph-name="threeinferior" unicode="&#x2083;" horiz-adv-x="484" 
d="M19 -9l65 86h229q32 0 32 22q0 23 -32 23h-200l54 72h148q29 0 29 23q0 21 -29 21h-280l66 87h209q62 0 97 -24t35 -69q0 -27 -13.5 -45t-31.5 -24q23 -7 37.5 -26.5t14.5 -48.5q0 -97 -136 -97h-294z" />
    <glyph glyph-name="fourinferior" unicode="&#x2084;" horiz-adv-x="508" 
d="M296 30h-217q-23 0 -37 13.5t-14 32.5q0 22 22 40l241 196q22 18 48 18q24 0 40.5 -15.5t16.5 -46.5v-155h95l-60 -83h-35v-39h-100v39zM296 113v49q0 21 2 43q-9 -9 -36 -31l-37 -30q-3 -2 -45 -33q28 2 57 2h59z" />
    <glyph glyph-name="fiveinferior" unicode="&#x2085;" horiz-adv-x="478" 
d="M52 325h379l-67 -87h-209v-47h162q126 0 126 -92q0 -108 -144 -108h-264l66 86h207q35 0 35 23q0 25 -35 25h-256v200z" />
    <glyph glyph-name="sixinferior" unicode="&#x2086;" horiz-adv-x="514" 
d="M232 238q-66 0 -90 -47h211q59 0 92.5 -24t33.5 -69q0 -113 -209 -113q-118 0 -176.5 43t-58.5 133q0 72 57 118t145 46h215l-67 -87h-153zM345 125h-203q8 -32 39 -42.5t94 -10.5q62 0 84 7t22 23q0 23 -36 23z" />
    <glyph glyph-name="seveninferior" unicode="&#x2087;" horiz-adv-x="450" 
d="M415 241l-214 -250h-131l165 184q44 51 61 65q-19 -2 -94 -2h-182l66 87h289q27 0 42 -12.5t15 -32.5q0 -19 -17 -39z" />
    <glyph glyph-name="eightinferior" unicode="&#x2088;" horiz-adv-x="504" 
d="M334 -9h-164q-135 0 -135 97q0 29 14.5 48.5t37.5 26.5q-45 14 -45 69q0 45 35 69t96 24h158q62 0 97 -24t35 -69q0 -27 -13.5 -45t-32.5 -24q52 -16 52 -75q0 -97 -135 -97zM334 122h-164q-32 0 -32 -23q0 -22 32 -22h164q32 0 32 22q0 23 -32 23zM336 238h-168
q-28 0 -28 -21q0 -23 28 -23h168q28 0 28 23q0 21 -28 21z" />
    <glyph glyph-name="nineinferior" unicode="&#x2089;" horiz-adv-x="514" 
d="M132 77h150q63 0 90 55q-50 -8 -212 -8q-58 0 -91.5 24t-33.5 69q0 113 209 113q235 0 235 -165q0 -80 -56.5 -127t-145.5 -47h-211zM168 190q155 0 203 5q-7 30 -37 39t-96 9q-62 0 -84 -7t-22 -23q0 -23 36 -23z" />
    <glyph glyph-name="Euro" unicode="&#x20ac;" horiz-adv-x="889" 
d="M7 363l45 67h48q33 109 139 174t252 65h375l-135 -174h-240q-103 0 -160 -65h348l-51 -67h-330q-3 -15 -3 -31q0 -13 1 -19h294l-52 -66h-216q53 -75 169 -75h337l-133 -172h-204q-143 0 -248.5 68t-140.5 179h-95l45 66h37q-1 9 -1 28q0 15 1 22h-82z" />
    <glyph glyph-name="uni2117" unicode="&#x2117;" horiz-adv-x="785" 
d="M572 379q0 -52 -37 -82.5t-102 -30.5h-137v-92h-64v146h206q31 0 48 16t17 43t-17 43t-48 16h-187l45 56h137q65 0 102 -31.5t37 -83.5zM44 335q0 144 101.5 245t244.5 101t244.5 -101t101.5 -245q0 -143 -101.5 -244.5t-244.5 -101.5t-244.5 101.5t-101.5 244.5zM85 334
q0 -128 89.5 -217t217.5 -89q127 0 216.5 89.5t89.5 216.5t-90 218t-216 91q-128 0 -217.5 -91t-89.5 -218z" />
    <glyph glyph-name="trademark" unicode="&#x2122;" horiz-adv-x="578" 
d="M244 669v-60h-74v-220h-61v220h-75v60h210zM532 669v-280h-62v105l-43 -105h-47l-43 104v-104h-62v280h56l73 -177l72 177h56z" />
    <glyph glyph-name="onethird" unicode="&#x2153;" horiz-adv-x="923" 
d="M42 600l62 87h123v-334h-104v247h-81zM600 706h84l-533 -744h-91zM451 -9l65 86h229q32 0 32 22q0 23 -32 23h-200l54 72h148q29 0 29 23q0 21 -29 21h-280l66 87h209q62 0 97 -24t35 -69q0 -27 -13.5 -45t-31.5 -24q23 -7 37.5 -26.5t14.5 -48.5q0 -97 -136 -97h-294z
" />
    <glyph glyph-name="twothirds" unicode="&#x2154;" horiz-adv-x="1036" 
d="M56 600l66 87h196q144 0 144 -104q0 -44 -31.5 -70t-94.5 -26h-159q-35 0 -35 -25v-23h323l-67 -86h-356v108q0 92 126 92h159q35 0 35 24q0 23 -35 23h-271zM742 706h84l-533 -744h-91zM565 -9l65 86h229q32 0 32 22q0 23 -32 23h-200l54 72h148q29 0 29 23q0 21 -29 21
h-280l66 87h209q62 0 97 -24t35 -69q0 -27 -13.5 -45t-31.5 -24q23 -7 37.5 -26.5t14.5 -48.5q0 -97 -136 -97h-294z" />
    <glyph glyph-name="oneeighth" unicode="&#x215b;" horiz-adv-x="962" 
d="M42 600l62 87h123v-334h-104v247h-81zM619 706h84l-533 -744h-91zM785 -9h-164q-135 0 -135 97q0 29 14.5 48.5t37.5 26.5q-45 14 -45 69q0 45 35 69t96 24h158q62 0 97 -24t35 -69q0 -27 -13.5 -45t-32.5 -24q52 -16 52 -75q0 -97 -135 -97zM785 122h-164q-32 0 -32 -23
q0 -22 32 -22h164q32 0 32 22q0 23 -32 23zM787 238h-168q-28 0 -28 -21q0 -23 28 -23h168q28 0 28 23q0 21 -28 21z" />
    <glyph glyph-name="threeeighths" unicode="&#x215c;" horiz-adv-x="1092" 
d="M42 353l65 86h229q32 0 32 22q0 23 -32 23h-200l54 72h148q29 0 29 23q0 21 -29 21h-280l66 87h209q62 0 97 -24t35 -69q0 -27 -13.5 -45t-31.5 -24q23 -7 37.5 -26.5t14.5 -48.5q0 -97 -136 -97h-294zM768 706h84l-533 -744h-91zM915 -9h-164q-135 0 -135 97
q0 29 14.5 48.5t37.5 26.5q-45 14 -45 69q0 45 35 69t96 24h158q62 0 97 -24t35 -69q0 -27 -13.5 -45t-32.5 -24q52 -16 52 -75q0 -97 -135 -97zM915 122h-164q-32 0 -32 -23q0 -22 32 -22h164q32 0 32 22q0 23 -32 23zM917 238h-168q-28 0 -28 -21q0 -23 28 -23h168
q28 0 28 23q0 21 -28 21z" />
    <glyph glyph-name="fiveeighths" unicode="&#x215d;" horiz-adv-x="1061" 
d="M59 687h379l-67 -87h-209v-47h162q126 0 126 -92q0 -108 -144 -108h-264l66 86h207q35 0 35 23q0 25 -35 25h-256v200zM737 706h84l-533 -744h-91zM884 -9h-164q-135 0 -135 97q0 29 14.5 48.5t37.5 26.5q-45 14 -45 69q0 45 35 69t96 24h158q62 0 97 -24t35 -69
q0 -27 -13.5 -45t-32.5 -24q52 -16 52 -75q0 -97 -135 -97zM884 122h-164q-32 0 -32 -23q0 -22 32 -22h164q32 0 32 22q0 23 -32 23zM886 238h-168q-28 0 -28 -21q0 -23 28 -23h168q28 0 28 23q0 21 -28 21z" />
    <glyph glyph-name="seveneighths" unicode="&#x215e;" horiz-adv-x="982" 
d="M437 603l-214 -250h-131l165 184q44 51 61 65q-19 -2 -94 -2h-182l66 87h289q27 0 42 -12.5t15 -32.5q0 -19 -17 -39zM658 706h84l-533 -744h-91zM805 -9h-164q-135 0 -135 97q0 29 14.5 48.5t37.5 26.5q-45 14 -45 69q0 45 35 69t96 24h158q62 0 97 -24t35 -69
q0 -27 -13.5 -45t-32.5 -24q52 -16 52 -75q0 -97 -135 -97zM805 122h-164q-32 0 -32 -23q0 -22 32 -22h164q32 0 32 22q0 23 -32 23zM807 238h-168q-28 0 -28 -21q0 -23 28 -23h168q28 0 28 23q0 21 -28 21z" />
    <glyph glyph-name="minus" unicode="&#x2212;" horiz-adv-x="629" 
d="M588 396v-112h-546v112h546z" />
    <glyph glyph-name="approxequal" unicode="&#x2248;" horiz-adv-x="567" 
d="M382 344q-37 0 -109.5 37t-108.5 37q-63 0 -124 -82v164q64 66 137 66q36 0 108 -36.5t112 -36.5q63 0 124 80v-164q-65 -65 -139 -65zM385 107q-37 0 -109.5 37t-108.5 37q-63 0 -124 -82v164q64 66 137 66q36 0 108 -36.5t112 -36.5q63 0 124 80v-164q-65 -65 -139 -65
z" />
    <glyph glyph-name="notequal" unicode="&#x2260;" horiz-adv-x="629" 
d="M588 528v-112h-169l-110 -153h279v-112h-359l-135 -189h-91l137 189h-98v112h179l111 153h-290v112h371l129 178h84l-127 -178h89z" />
    <glyph glyph-name="lessequal" unicode="&#x2264;" horiz-adv-x="611" 
d="M570 176v-122l-492 230q-36 16 -36 53t36 54l492 230v-122l-349 -162zM588 -2v-112h-546v112h546z" />
    <glyph glyph-name="greaterequal" unicode="&#x2265;" horiz-adv-x="611" 
d="M42 54v122l349 161l-349 162v122l492 -230q36 -18 36 -54q0 -37 -36 -53zM588 -2v-112h-546v112h546z" />
    <glyph glyph-name="CR" horiz-adv-x="383" 
 />
    </font>
</defs>
</svg>
